<svg xmlns="http://www.w3.org/2000/svg" viewBox="0 0 114.9 259.68"><g id="Layer_2" data-name="Layer 2"><g id="Layer_1-2" data-name="Layer 1"><path d="M57.45,102.66a25.9,25.9,0,1,0,25.9,25.9A25.9,25.9,0,0,0,57.45,102.66Zm-3.13,40.56a10,10,0,1,1,10-10A10,10,0,0,1,54.32,143.22Z" style="fill:#221f20"/><polygon points="57.45 0 0 120.29 19.98 120.29 57.45 41.84 94.92 120.29 114.9 120.29 57.45 0" style="fill:#221f20"/><polygon points="57.45 259.68 114.9 139.4 94.92 139.4 57.45 217.84 19.98 139.4 0 139.4 57.45 259.68" style="fill:#221f20"/></g></g></svg>