<svg width="72" height="72" viewBox="0 0 72 72" fill="none" xmlns="http://www.w3.org/2000/svg">
<rect width="72" height="72" rx="12" fill="black"/>
<path d="M10.3295 38.0057V36.4205C11.7528 36.4205 12.7457 36.1222 13.3082 35.5256C13.8793 34.929 14.1648 33.9318 14.1648 32.5341V28.4432C14.1648 27.267 14.2756 26.2486 14.4972 25.3878C14.7273 24.527 15.098 23.8153 15.6094 23.2528C16.1207 22.6903 16.8026 22.2727 17.6548 22C18.5071 21.7273 19.5597 21.5909 20.8125 21.5909V24.0966C19.8239 24.0966 19.044 24.25 18.473 24.5568C17.9105 24.8636 17.5099 25.3409 17.2713 25.9886C17.0412 26.6278 16.9261 27.446 16.9261 28.4432V33.5568C16.9261 34.2216 16.8366 34.8267 16.6577 35.3722C16.4872 35.9176 16.1676 36.3864 15.6989 36.7784C15.2301 37.1705 14.5611 37.473 13.6918 37.6861C12.831 37.8991 11.7102 38.0057 10.3295 38.0057ZM20.8125 54.3182C19.5597 54.3182 18.5071 54.1818 17.6548 53.9091C16.8026 53.6364 16.1207 53.2188 15.6094 52.6562C15.098 52.0938 14.7273 51.3821 14.4972 50.5213C14.2756 49.6605 14.1648 48.642 14.1648 47.4659V43.375C14.1648 41.9773 13.8793 40.9801 13.3082 40.3835C12.7457 39.7869 11.7528 39.4886 10.3295 39.4886V37.9034C11.7102 37.9034 12.831 38.0099 13.6918 38.223C14.5611 38.4361 15.2301 38.7386 15.6989 39.1307C16.1676 39.5227 16.4872 39.9915 16.6577 40.5369C16.8366 41.0824 16.9261 41.6875 16.9261 42.3523V47.4659C16.9261 48.4631 17.0412 49.2813 17.2713 49.9205C17.5099 50.5597 17.9105 51.0327 18.473 51.3395C19.044 51.6548 19.8239 51.8125 20.8125 51.8125V54.3182ZM10.3295 39.4886V36.4205H13.3466V39.4886H10.3295Z" fill="#00FFF0"/>
<path d="M27.2443 49H23.9205L33.5341 22.8182H36.8068L46.4205 49H43.0966L35.2727 26.9602H35.0682L27.2443 49ZM28.4716 38.7727H41.8693V41.5852H28.4716V38.7727Z" fill="#FF0000"/>
<path d="M59.7102 37.9034V39.4886C58.2869 39.4886 57.2898 39.7869 56.7188 40.3835C56.1562 40.9801 55.875 41.9773 55.875 43.375V47.4659C55.875 48.642 55.7599 49.6605 55.5298 50.5213C55.3082 51.3821 54.9418 52.0938 54.4304 52.6562C53.919 53.2188 53.2372 53.6364 52.3849 53.9091C51.5327 54.1818 50.4801 54.3182 49.2273 54.3182V51.8125C50.2159 51.8125 50.9915 51.6548 51.554 51.3395C52.125 51.0327 52.5256 50.5597 52.7557 49.9205C52.9943 49.2813 53.1136 48.4631 53.1136 47.4659V42.3523C53.1136 41.6875 53.1989 41.0824 53.3693 40.5369C53.5483 39.9915 53.8722 39.5227 54.3409 39.1307C54.8097 38.7386 55.4744 38.4361 56.3352 38.223C57.2045 38.0099 58.3295 37.9034 59.7102 37.9034ZM49.2273 21.5909C50.4801 21.5909 51.5327 21.7273 52.3849 22C53.2372 22.2727 53.919 22.6903 54.4304 23.2528C54.9418 23.8153 55.3082 24.527 55.5298 25.3878C55.7599 26.2486 55.875 27.267 55.875 28.4432V32.5341C55.875 33.9318 56.1562 34.929 56.7188 35.5256C57.2898 36.1222 58.2869 36.4205 59.7102 36.4205V38.0057C58.3295 38.0057 57.2045 37.8991 56.3352 37.6861C55.4744 37.473 54.8097 37.1705 54.3409 36.7784C53.8722 36.3864 53.5483 35.9176 53.3693 35.3722C53.1989 34.8267 53.1136 34.2216 53.1136 33.5568V28.4432C53.1136 27.446 52.9943 26.6278 52.7557 25.9886C52.5256 25.3409 52.125 24.8636 51.554 24.5568C50.9915 24.25 50.2159 24.0966 49.2273 24.0966V21.5909ZM59.7102 36.4205V39.4886H56.6932V36.4205H59.7102Z" fill="#00FFF0"/>
</svg>
