<svg width="102" height="80" viewBox="0 0 102 80" fill="none" xmlns="http://www.w3.org/2000/svg">
<path d="M2.11364 41.1818V37.2045C4.68939 37.2045 6.48485 36.6818 7.5 35.6364C8.5303 34.5758 9.04545 32.8561 9.04545 30.4773V24.6818C9.04545 22.1212 9.36364 20.0227 10 18.3864C10.6515 16.75 11.5985 15.4773 12.8409 14.5682C14.0833 13.6591 15.5985 13.0303 17.3864 12.6818C19.1742 12.3182 21.2045 12.1364 23.4773 12.1364V18.4545C21.6894 18.4545 20.3182 18.7045 19.3636 19.2045C18.4091 19.6894 17.75 20.4394 17.3864 21.4545C17.0379 22.4697 16.8636 23.7652 16.8636 25.3409V32.7955C16.8636 33.9621 16.6667 35.053 16.2727 36.0682C15.8788 37.0833 15.1591 37.9773 14.1136 38.75C13.0682 39.5076 11.5758 40.1061 9.63636 40.5455C7.71212 40.9697 5.20455 41.1818 2.11364 41.1818ZM23.4773 69.8864C21.2045 69.8864 19.1742 69.7045 17.3864 69.3409C15.5985 68.9924 14.0833 68.3636 12.8409 67.4545C11.5985 66.5455 10.6515 65.2727 10 63.6364C9.36364 62 9.04545 59.9015 9.04545 57.3409V51.5682C9.04545 49.1894 8.5303 47.4773 7.5 46.4318C6.48485 45.3712 4.68939 44.8409 2.11364 44.8409V40.8636C5.20455 40.8636 7.71212 41.0833 9.63636 41.5227C11.5758 41.947 13.0682 42.5455 14.1136 43.3182C15.1591 44.0758 15.8788 44.9621 16.2727 45.9773C16.6667 46.9924 16.8636 48.0758 16.8636 49.2273V56.6818C16.8636 58.2576 17.0379 59.553 17.3864 60.5682C17.75 61.5833 18.4091 62.3409 19.3636 62.8409C20.3182 63.3409 21.6894 63.5909 23.4773 63.5909V69.8864ZM2.11364 44.8409V37.2045H9.31818V44.8409H2.11364Z" fill="#00FFE1"/>
<path d="M99.0682 40.8636V44.8409C96.4924 44.8409 94.6894 45.3712 93.6591 46.4318C92.6439 47.4773 92.1364 49.1894 92.1364 51.5682V57.3409C92.1364 59.9015 91.8106 62 91.1591 63.6364C90.5227 65.2727 89.5833 66.5455 88.3409 67.4545C87.0985 68.3636 85.5833 68.9924 83.7955 69.3409C82.0076 69.7045 79.9773 69.8864 77.7045 69.8864V63.5909C79.4924 63.5909 80.8636 63.3409 81.8182 62.8409C82.7727 62.3409 83.4242 61.5833 83.7727 60.5682C84.1364 59.553 84.3182 58.2576 84.3182 56.6818V49.2273C84.3182 48.0758 84.5152 46.9924 84.9091 45.9773C85.303 44.9621 86.0227 44.0758 87.0682 43.3182C88.1136 42.5455 89.5985 41.947 91.5227 41.5227C93.4621 41.0833 95.9773 40.8636 99.0682 40.8636ZM77.7045 12.1364C79.9773 12.1364 82.0076 12.3182 83.7955 12.6818C85.5833 13.0303 87.0985 13.6591 88.3409 14.5682C89.5833 15.4773 90.5227 16.75 91.1591 18.3864C91.8106 20.0227 92.1364 22.1212 92.1364 24.6818V30.4773C92.1364 32.8561 92.6439 34.5758 93.6591 35.6364C94.6894 36.6818 96.4924 37.2045 99.0682 37.2045V41.1818C95.9773 41.1818 93.4621 40.9697 91.5227 40.5455C89.5985 40.1061 88.1136 39.5076 87.0682 38.75C86.0227 37.9773 85.303 37.0833 84.9091 36.0682C84.5152 35.053 84.3182 33.9621 84.3182 32.7955V25.3409C84.3182 23.7652 84.1364 22.4697 83.7727 21.4545C83.4242 20.4394 82.7727 19.6894 81.8182 19.2045C80.8636 18.7045 79.4924 18.4545 77.7045 18.4545V12.1364ZM99.0682 37.2045V44.8409H91.8636V37.2045H99.0682Z" fill="#00FFE1"/>
<path d="M31.8125 69H26.2443L47.4091 10.8182H53.0909L74.2557 69H68.6875L50.4489 17.7216H50.0511L31.8125 69ZM35.8182 46.6989H64.6818V51.4716H35.8182V46.6989Z" fill="#FF0000"/>
</svg>
