<svg width="874" height="229" viewBox="0 0 874 229" fill="none" xmlns="http://www.w3.org/2000/svg">
<path d="M97.6992 137.611V108.344H107.689V137.611C107.689 140.463 107.123 142.934 105.99 145.023C104.877 147.113 103.354 148.734 101.42 149.887C99.5059 151.02 97.3574 151.586 94.9746 151.586C92.5332 151.586 90.3457 151.107 88.4121 150.15C86.498 149.193 84.9941 147.719 83.9004 145.727C82.8066 143.734 82.2598 141.195 82.2598 138.109H92.3086C92.3086 139.555 92.4062 140.688 92.6016 141.508C92.8164 142.309 93.1191 142.875 93.5098 143.207C93.9004 143.52 94.3887 143.676 94.9746 143.676C95.5996 143.676 96.1074 143.441 96.498 142.973C96.8887 142.484 97.1816 141.791 97.377 140.893C97.5918 139.975 97.6992 138.881 97.6992 137.611ZM112.068 136.645V133.686C112.068 131.186 112.381 129.008 113.006 127.152C113.631 125.277 114.52 123.725 115.672 122.494C116.824 121.244 118.201 120.307 119.803 119.682C121.404 119.037 123.191 118.715 125.164 118.715C127.176 118.715 128.982 119.037 130.584 119.682C132.186 120.307 133.562 121.244 134.715 122.494C135.867 123.725 136.756 125.277 137.381 127.152C138.006 129.008 138.318 131.186 138.318 133.686V136.645C138.318 139.125 138.006 141.303 137.381 143.178C136.756 145.053 135.867 146.615 134.715 147.865C133.582 149.115 132.205 150.053 130.584 150.678C128.982 151.283 127.195 151.586 125.223 151.586C123.25 151.586 121.453 151.283 119.832 150.678C118.211 150.053 116.824 149.115 115.672 147.865C114.52 146.615 113.631 145.053 113.006 143.178C112.381 141.303 112.068 139.125 112.068 136.645ZM121.707 133.686V136.645C121.707 137.992 121.785 139.145 121.941 140.102C122.098 141.039 122.322 141.801 122.615 142.387C122.928 142.953 123.299 143.363 123.729 143.617C124.158 143.871 124.656 143.998 125.223 143.998C125.945 143.998 126.531 143.871 126.98 143.617C127.449 143.363 127.811 142.953 128.064 142.387C128.318 141.801 128.484 141.039 128.562 140.102C128.66 139.145 128.709 137.992 128.709 136.645V133.686C128.709 132.357 128.631 131.234 128.475 130.316C128.338 129.379 128.113 128.617 127.801 128.031C127.508 127.426 127.137 126.996 126.688 126.742C126.238 126.469 125.73 126.332 125.164 126.332C124.617 126.332 124.129 126.469 123.699 126.742C123.27 126.996 122.908 127.426 122.615 128.031C122.322 128.617 122.098 129.379 121.941 130.316C121.785 131.234 121.707 132.357 121.707 133.686ZM152.453 119.301V151H142.844V119.301H152.453ZM142.375 111.127C142.375 109.721 142.854 108.568 143.811 107.67C144.787 106.771 146.047 106.322 147.59 106.322C149.152 106.322 150.412 106.771 151.369 107.67C152.326 108.568 152.805 109.721 152.805 111.127C152.805 112.533 152.326 113.686 151.369 114.584C150.412 115.482 149.152 115.932 147.59 115.932C146.047 115.932 144.787 115.482 143.811 114.584C142.854 113.686 142.375 112.533 142.375 111.127ZM167.262 126.068V151H157.623V119.301H166.646L167.262 126.068ZM166.119 134.066L163.951 134.125C163.912 131.703 164.127 129.545 164.596 127.65C165.084 125.736 165.777 124.115 166.676 122.787C167.594 121.459 168.688 120.453 169.957 119.77C171.227 119.066 172.643 118.715 174.205 118.715C175.396 118.715 176.5 118.93 177.516 119.359C178.551 119.789 179.439 120.482 180.182 121.439C180.924 122.396 181.5 123.666 181.91 125.248C182.32 126.811 182.525 128.744 182.525 131.049V151H172.857V131.02C172.857 129.75 172.74 128.783 172.506 128.119C172.291 127.436 171.949 126.967 171.48 126.713C171.031 126.459 170.455 126.332 169.752 126.332C169.068 126.332 168.482 126.527 167.994 126.918C167.525 127.309 167.145 127.855 166.852 128.559C166.578 129.242 166.383 130.053 166.266 130.99C166.168 131.928 166.119 132.953 166.119 134.066ZM215.951 119.301V126.156H199.193V119.301H215.951ZM202.24 111.42H211.879V140.658C211.879 141.498 211.938 142.152 212.055 142.621C212.191 143.07 212.436 143.393 212.787 143.588C213.158 143.764 213.676 143.852 214.34 143.852C214.809 143.852 215.189 143.842 215.482 143.822C215.795 143.783 216.068 143.734 216.303 143.676L216.244 150.736C215.482 151.01 214.691 151.215 213.871 151.352C213.07 151.508 212.191 151.586 211.234 151.586C209.34 151.586 207.719 151.254 206.371 150.59C205.043 149.926 204.018 148.881 203.295 147.455C202.592 146.029 202.24 144.174 202.24 141.889V111.42ZM228.885 106V151H219.246V106H228.885ZM227.742 134.066L225.574 134.125C225.535 131.898 225.73 129.848 226.16 127.973C226.609 126.098 227.254 124.467 228.094 123.08C228.953 121.693 229.979 120.619 231.17 119.857C232.381 119.096 233.719 118.715 235.184 118.715C236.473 118.715 237.664 118.939 238.758 119.389C239.871 119.838 240.828 120.561 241.629 121.557C242.43 122.553 243.055 123.852 243.504 125.453C243.953 127.055 244.178 129.008 244.178 131.312V151H234.51V131.254C234.51 129.965 234.393 128.969 234.158 128.266C233.924 127.543 233.572 127.045 233.104 126.771C232.654 126.479 232.078 126.332 231.375 126.332C230.555 126.332 229.891 126.527 229.383 126.918C228.895 127.309 228.523 127.855 228.27 128.559C228.035 129.242 227.889 130.053 227.83 130.99C227.771 131.928 227.742 132.953 227.742 134.066ZM262.561 151.586C260.295 151.586 258.273 151.273 256.496 150.648C254.738 150.023 253.264 149.105 252.072 147.895C250.881 146.664 249.973 145.17 249.348 143.412C248.742 141.654 248.439 139.643 248.439 137.377V133.92C248.439 131.381 248.703 129.164 249.23 127.27C249.777 125.375 250.588 123.803 251.662 122.553C252.736 121.283 254.104 120.326 255.764 119.682C257.424 119.037 259.377 118.715 261.623 118.715C263.596 118.715 265.344 119.008 266.867 119.594C268.41 120.18 269.709 121.088 270.764 122.318C271.838 123.529 272.658 125.082 273.225 126.977C273.791 128.852 274.074 131.078 274.074 133.656V138.256H252.043V132.074H264.67V130.99C264.689 129.701 264.572 128.725 264.318 128.061C264.084 127.396 263.732 126.947 263.264 126.713C262.795 126.459 262.219 126.332 261.535 126.332C260.734 126.332 260.1 126.469 259.631 126.742C259.162 127.016 258.82 127.445 258.605 128.031C258.391 128.617 258.244 129.398 258.166 130.375C258.107 131.352 258.078 132.533 258.078 133.92V137.377C258.078 138.744 258.186 139.857 258.4 140.717C258.635 141.576 258.967 142.24 259.396 142.709C259.846 143.178 260.383 143.51 261.008 143.705C261.652 143.881 262.385 143.969 263.205 143.969C264.377 143.969 265.52 143.773 266.633 143.383C267.746 142.973 268.693 142.309 269.475 141.391L273.4 147.367C272.873 148.051 272.092 148.725 271.057 149.389C270.021 150.033 268.791 150.561 267.365 150.971C265.939 151.381 264.338 151.586 262.561 151.586ZM307.822 117.309L299.883 151H289.102L302.256 108.344H308.994L307.822 117.309ZM314.033 151L306.094 117.309L304.775 108.344H311.631L324.814 151H314.033ZM314.355 135.092V143.031H295.869V135.092H314.355ZM340.971 142.387C340.971 141.82 340.766 141.371 340.355 141.039C339.945 140.707 339.369 140.365 338.627 140.014C337.885 139.662 336.996 139.193 335.961 138.607C334.711 138.041 333.529 137.445 332.416 136.82C331.322 136.176 330.355 135.473 329.516 134.711C328.695 133.949 328.051 133.061 327.582 132.045C327.113 131.01 326.879 129.818 326.879 128.471C326.879 127.104 327.123 125.834 327.611 124.662C328.119 123.49 328.861 122.465 329.838 121.586C330.814 120.688 332.006 119.984 333.412 119.477C334.818 118.969 336.43 118.715 338.246 118.715C340.727 118.715 342.865 119.125 344.662 119.945C346.459 120.746 347.846 121.908 348.822 123.432C349.799 124.936 350.287 126.703 350.287 128.734H340.678C340.678 127.934 340.609 127.279 340.473 126.771C340.336 126.244 340.082 125.854 339.711 125.6C339.359 125.346 338.861 125.219 338.217 125.219C337.885 125.219 337.543 125.326 337.191 125.541C336.84 125.736 336.547 126.039 336.312 126.449C336.078 126.84 335.961 127.338 335.961 127.943C335.961 128.373 336.039 128.744 336.195 129.057C336.371 129.35 336.615 129.633 336.928 129.906C337.24 130.16 337.602 130.424 338.012 130.697C338.441 130.971 338.939 131.273 339.506 131.605C341.186 132.25 342.846 132.953 344.486 133.715C346.127 134.477 347.494 135.502 348.588 136.791C349.701 138.08 350.258 139.848 350.258 142.094C350.258 143.5 349.975 144.779 349.408 145.932C348.842 147.084 348.031 148.09 346.977 148.949C345.941 149.809 344.682 150.463 343.197 150.912C341.713 151.361 340.043 151.586 338.188 151.586C335.57 151.586 333.354 151.068 331.537 150.033C329.74 148.998 328.383 147.68 327.465 146.078C326.547 144.477 326.088 142.826 326.088 141.127H335.023C335.043 142.104 335.189 142.885 335.463 143.471C335.736 144.037 336.117 144.447 336.605 144.701C337.094 144.936 337.709 145.053 338.451 145.053C339.018 145.053 339.486 144.955 339.857 144.76C340.229 144.545 340.502 144.242 340.678 143.852C340.873 143.441 340.971 142.953 340.971 142.387ZM364.1 105.971V151H354.49V105.971H364.1ZM381.092 119.301L369.871 135.443L363.426 142.65L359.207 136.381L364.48 128.559L369.637 119.301H381.092ZM370.721 151L364.656 136.557L371.805 131.371L381.678 151H370.721ZM396.896 143.031V129.086C396.896 128.188 396.828 127.504 396.691 127.035C396.555 126.547 396.33 126.205 396.018 126.01C395.725 125.795 395.285 125.688 394.699 125.688C394.23 125.688 393.85 125.805 393.557 126.039C393.264 126.273 393.059 126.635 392.941 127.123C392.824 127.611 392.766 128.256 392.766 129.057H383.127C383.127 127.592 383.41 126.234 383.977 124.984C384.543 123.715 385.354 122.611 386.408 121.674C387.463 120.736 388.723 120.014 390.188 119.506C391.672 118.979 393.332 118.715 395.168 118.715C397.336 118.715 399.279 119.066 400.998 119.77C402.717 120.453 404.074 121.557 405.07 123.08C406.086 124.604 406.594 126.625 406.594 129.145V143.002C406.594 145.072 406.701 146.645 406.916 147.719C407.131 148.773 407.424 149.701 407.795 150.502V151H398.186C397.736 150.023 397.404 148.832 397.189 147.426C396.994 146 396.896 144.535 396.896 143.031ZM397.98 131.635L398.039 136.908H395.549C394.943 136.908 394.426 137.055 393.996 137.348C393.566 137.621 393.205 137.992 392.912 138.461C392.639 138.93 392.443 139.457 392.326 140.043C392.209 140.609 392.15 141.195 392.15 141.801C392.15 142.66 392.238 143.285 392.414 143.676C392.609 144.066 392.844 144.32 393.117 144.438C393.41 144.535 393.732 144.584 394.084 144.584C394.826 144.584 395.441 144.428 395.93 144.115C396.438 143.783 396.799 143.393 397.014 142.943C397.229 142.494 397.287 142.113 397.189 141.801L398.186 145.668C397.854 146.391 397.531 147.104 397.219 147.807C396.906 148.49 396.516 149.125 396.047 149.711C395.578 150.277 395.002 150.727 394.318 151.059C393.635 151.41 392.775 151.586 391.74 151.586C390.1 151.586 388.576 151.254 387.17 150.59C385.783 149.926 384.66 148.9 383.801 147.514C382.961 146.127 382.541 144.369 382.541 142.24C382.541 140.775 382.766 139.408 383.215 138.139C383.684 136.85 384.416 135.717 385.412 134.74C386.408 133.764 387.746 133.002 389.426 132.455C391.125 131.908 393.195 131.635 395.637 131.635H397.98ZM423.688 151H415.865L415.924 143.09H423.688C425.152 143.09 426.344 142.768 427.262 142.123C428.199 141.479 428.893 140.414 429.342 138.93C429.791 137.426 430.016 135.424 430.016 132.924V126.391C430.016 124.516 429.889 122.934 429.635 121.645C429.4 120.355 429.029 119.32 428.521 118.539C428.014 117.758 427.34 117.191 426.5 116.84C425.66 116.469 424.664 116.283 423.512 116.283H415.719V108.344H423.512C426.012 108.344 428.277 108.754 430.309 109.574C432.359 110.375 434.127 111.566 435.611 113.148C437.096 114.711 438.238 116.605 439.039 118.832C439.84 121.059 440.24 123.598 440.24 126.449V132.924C440.24 135.756 439.84 138.295 439.039 140.541C438.238 142.768 437.096 144.662 435.611 146.225C434.146 147.787 432.398 148.979 430.367 149.799C428.355 150.6 426.129 151 423.688 151ZM421.725 108.344V151H411.705V108.344H421.725ZM470.342 143.09V151H451.68V143.09H470.342ZM455.166 108.344V151H445.146V108.344H455.166ZM467.91 125.277V132.924H451.68V125.277H467.91ZM470.43 108.344V116.283H451.68V108.344H470.43ZM488.285 140.951L494.848 108.344H506.098L494.262 151H487.055L488.285 140.951ZM482.777 108.344L489.369 140.951L490.658 151H483.363L471.586 108.344H482.777ZM542.482 136.557H552.502C552.521 139.76 551.896 142.494 550.627 144.76C549.377 147.006 547.609 148.705 545.324 149.857C543.039 151.01 540.363 151.586 537.297 151.586C534.816 151.586 532.619 151.156 530.705 150.297C528.791 149.438 527.18 148.188 525.871 146.547C524.562 144.906 523.576 142.924 522.912 140.6C522.248 138.256 521.916 135.6 521.916 132.631V126.684C521.916 123.734 522.268 121.088 522.971 118.744C523.693 116.4 524.709 114.408 526.018 112.768C527.346 111.127 528.947 109.877 530.822 109.018C532.717 108.158 534.826 107.729 537.15 107.729C540.412 107.729 543.166 108.344 545.412 109.574C547.678 110.785 549.416 112.543 550.627 114.848C551.838 117.133 552.482 119.877 552.561 123.08H542.541C542.639 121.225 542.521 119.77 542.189 118.715C541.857 117.641 541.271 116.889 540.432 116.459C539.611 116.01 538.518 115.785 537.15 115.785C536.213 115.785 535.422 115.971 534.777 116.342C534.133 116.713 533.615 117.328 533.225 118.188C532.834 119.027 532.551 120.141 532.375 121.527C532.199 122.914 532.111 124.613 532.111 126.625V132.631C532.111 134.682 532.18 136.4 532.316 137.787C532.453 139.174 532.707 140.297 533.078 141.156C533.469 141.996 533.996 142.602 534.66 142.973C535.344 143.344 536.223 143.529 537.297 143.529C538.43 143.529 539.396 143.344 540.197 142.973C540.998 142.582 541.604 141.889 542.014 140.893C542.424 139.877 542.58 138.432 542.482 136.557ZM555.475 136.645V133.686C555.475 131.186 555.787 129.008 556.412 127.152C557.037 125.277 557.926 123.725 559.078 122.494C560.23 121.244 561.607 120.307 563.209 119.682C564.811 119.037 566.598 118.715 568.57 118.715C570.582 118.715 572.389 119.037 573.99 119.682C575.592 120.307 576.969 121.244 578.121 122.494C579.273 123.725 580.162 125.277 580.787 127.152C581.412 129.008 581.725 131.186 581.725 133.686V136.645C581.725 139.125 581.412 141.303 580.787 143.178C580.162 145.053 579.273 146.615 578.121 147.865C576.988 149.115 575.611 150.053 573.99 150.678C572.389 151.283 570.602 151.586 568.629 151.586C566.656 151.586 564.859 151.283 563.238 150.678C561.617 150.053 560.23 149.115 559.078 147.865C557.926 146.615 557.037 145.053 556.412 143.178C555.787 141.303 555.475 139.125 555.475 136.645ZM565.113 133.686V136.645C565.113 137.992 565.191 139.145 565.348 140.102C565.504 141.039 565.729 141.801 566.021 142.387C566.334 142.953 566.705 143.363 567.135 143.617C567.564 143.871 568.062 143.998 568.629 143.998C569.352 143.998 569.938 143.871 570.387 143.617C570.855 143.363 571.217 142.953 571.471 142.387C571.725 141.801 571.891 141.039 571.969 140.102C572.066 139.145 572.115 137.992 572.115 136.645V133.686C572.115 132.357 572.037 131.234 571.881 130.316C571.744 129.379 571.52 128.617 571.207 128.031C570.914 127.426 570.543 126.996 570.094 126.742C569.645 126.469 569.137 126.332 568.57 126.332C568.023 126.332 567.535 126.469 567.105 126.742C566.676 126.996 566.314 127.426 566.021 128.031C565.729 128.617 565.504 129.379 565.348 130.316C565.191 131.234 565.113 132.357 565.113 133.686ZM595.508 126.01V151H585.928V119.301H594.893L595.508 126.01ZM594.365 134.066L592.227 134.125C592.188 131.898 592.383 129.848 592.812 127.973C593.242 126.098 593.887 124.467 594.746 123.08C595.625 121.693 596.709 120.619 597.998 119.857C599.287 119.096 600.791 118.715 602.51 118.715C603.623 118.715 604.639 118.93 605.557 119.359C606.494 119.77 607.305 120.424 607.988 121.322C608.672 122.201 609.199 123.354 609.57 124.779C609.941 126.186 610.127 127.875 610.127 129.848V151H600.488V131.107C600.488 129.76 600.391 128.744 600.195 128.061C600.02 127.377 599.756 126.918 599.404 126.684C599.053 126.449 598.594 126.332 598.027 126.332C597.5 126.332 597.002 126.527 596.533 126.918C596.084 127.309 595.693 127.855 595.361 128.559C595.029 129.242 594.775 130.053 594.6 130.99C594.443 131.928 594.365 132.953 594.365 134.066ZM609.014 134.066L606.436 134.125C606.396 131.898 606.572 129.848 606.963 127.973C607.354 126.098 607.959 124.467 608.779 123.08C609.619 121.693 610.674 120.619 611.943 119.857C613.213 119.096 614.717 118.715 616.455 118.715C617.646 118.715 618.74 118.93 619.736 119.359C620.752 119.789 621.631 120.482 622.373 121.439C623.115 122.396 623.691 123.666 624.102 125.248C624.512 126.811 624.717 128.744 624.717 131.049V151H615.078V131.049C615.078 129.74 614.98 128.754 614.785 128.09C614.609 127.406 614.336 126.947 613.965 126.713C613.613 126.459 613.184 126.332 612.676 126.332C612.031 126.332 611.475 126.527 611.006 126.918C610.557 127.309 610.176 127.855 609.863 128.559C609.57 129.242 609.355 130.053 609.219 130.99C609.082 131.928 609.014 132.953 609.014 134.066ZM639.496 126.01V151H629.916V119.301H638.881L639.496 126.01ZM638.354 134.066L636.215 134.125C636.176 131.898 636.371 129.848 636.801 127.973C637.23 126.098 637.875 124.467 638.734 123.08C639.613 121.693 640.697 120.619 641.986 119.857C643.275 119.096 644.779 118.715 646.498 118.715C647.611 118.715 648.627 118.93 649.545 119.359C650.482 119.77 651.293 120.424 651.977 121.322C652.66 122.201 653.188 123.354 653.559 124.779C653.93 126.186 654.115 127.875 654.115 129.848V151H644.477V131.107C644.477 129.76 644.379 128.744 644.184 128.061C644.008 127.377 643.744 126.918 643.393 126.684C643.041 126.449 642.582 126.332 642.016 126.332C641.488 126.332 640.99 126.527 640.521 126.918C640.072 127.309 639.682 127.855 639.35 128.559C639.018 129.242 638.764 130.053 638.588 130.99C638.432 131.928 638.354 132.953 638.354 134.066ZM653.002 134.066L650.424 134.125C650.385 131.898 650.561 129.848 650.951 127.973C651.342 126.098 651.947 124.467 652.768 123.08C653.607 121.693 654.662 120.619 655.932 119.857C657.201 119.096 658.705 118.715 660.443 118.715C661.635 118.715 662.729 118.93 663.725 119.359C664.74 119.789 665.619 120.482 666.361 121.439C667.104 122.396 667.68 123.666 668.09 125.248C668.5 126.811 668.705 128.744 668.705 131.049V151H659.066V131.049C659.066 129.74 658.969 128.754 658.773 128.09C658.598 127.406 658.324 126.947 657.953 126.713C657.602 126.459 657.172 126.332 656.664 126.332C656.02 126.332 655.463 126.527 654.994 126.918C654.545 127.309 654.164 127.855 653.852 128.559C653.559 129.242 653.344 130.053 653.207 130.99C653.07 131.928 653.002 132.953 653.002 134.066ZM688.875 143.295V119.301H698.514V151H689.52L688.875 143.295ZM689.754 136.85L692.127 136.791C692.127 138.92 691.912 140.893 691.482 142.709C691.053 144.506 690.428 146.068 689.607 147.396C688.787 148.725 687.781 149.76 686.59 150.502C685.418 151.225 684.061 151.586 682.518 151.586C681.189 151.586 679.979 151.371 678.885 150.941C677.811 150.492 676.873 149.799 676.072 148.861C675.291 147.904 674.676 146.684 674.227 145.199C673.797 143.695 673.582 141.898 673.582 139.809V119.301H683.191V139.867C683.191 140.57 683.24 141.176 683.338 141.684C683.455 142.191 683.611 142.621 683.807 142.973C684.021 143.305 684.295 143.559 684.627 143.734C684.959 143.891 685.35 143.969 685.799 143.969C686.814 143.969 687.615 143.656 688.201 143.031C688.787 142.406 689.188 141.557 689.402 140.482C689.637 139.408 689.754 138.197 689.754 136.85ZM712.766 126.068V151H703.127V119.301H712.15L712.766 126.068ZM711.623 134.066L709.455 134.125C709.416 131.703 709.631 129.545 710.1 127.65C710.588 125.736 711.281 124.115 712.18 122.787C713.098 121.459 714.191 120.453 715.461 119.77C716.73 119.066 718.146 118.715 719.709 118.715C720.9 118.715 722.004 118.93 723.02 119.359C724.055 119.789 724.943 120.482 725.686 121.439C726.428 122.396 727.004 123.666 727.414 125.248C727.824 126.811 728.029 128.744 728.029 131.049V151H718.361V131.02C718.361 129.75 718.244 128.783 718.01 128.119C717.795 127.436 717.453 126.967 716.984 126.713C716.535 126.459 715.959 126.332 715.256 126.332C714.572 126.332 713.986 126.527 713.498 126.918C713.029 127.309 712.648 127.855 712.355 128.559C712.082 129.242 711.887 130.053 711.77 130.99C711.672 131.928 711.623 132.953 711.623 134.066ZM742.984 119.301V151H733.375V119.301H742.984ZM732.906 111.127C732.906 109.721 733.385 108.568 734.342 107.67C735.318 106.771 736.578 106.322 738.121 106.322C739.684 106.322 740.943 106.771 741.9 107.67C742.857 108.568 743.336 109.721 743.336 111.127C743.336 112.533 742.857 113.686 741.9 114.584C740.943 115.482 739.684 115.932 738.121 115.932C736.578 115.932 735.318 115.482 734.342 114.584C733.385 113.686 732.906 112.533 732.906 111.127ZM763.33 119.301V126.156H746.572V119.301H763.33ZM749.619 111.42H759.258V140.658C759.258 141.498 759.316 142.152 759.434 142.621C759.57 143.07 759.814 143.393 760.166 143.588C760.537 143.764 761.055 143.852 761.719 143.852C762.188 143.852 762.568 143.842 762.861 143.822C763.174 143.783 763.447 143.734 763.682 143.676L763.623 150.736C762.861 151.01 762.07 151.215 761.25 151.352C760.449 151.508 759.57 151.586 758.613 151.586C756.719 151.586 755.098 151.254 753.75 150.59C752.422 149.926 751.396 148.881 750.674 147.455C749.971 146.029 749.619 144.174 749.619 141.889V111.42ZM775.004 147.279L781.449 119.301H791.762L781.273 155.717C781.039 156.518 780.727 157.377 780.336 158.295C779.945 159.232 779.408 160.121 778.725 160.961C778.041 161.801 777.162 162.484 776.088 163.012C775.014 163.539 773.695 163.803 772.133 163.803C771.234 163.803 770.609 163.754 770.258 163.656C769.906 163.578 769.291 163.432 768.412 163.217L768.441 156.156C768.656 156.156 768.812 156.156 768.91 156.156C769.008 156.156 769.164 156.156 769.379 156.156C770.219 156.156 770.883 156.049 771.371 155.834C771.859 155.619 772.23 155.307 772.484 154.896C772.738 154.486 772.924 153.988 773.041 153.402L775.004 147.279ZM774.828 119.301L779.135 141.479L780.16 151.938H773.744L764.516 119.301H774.828Z" fill="white"/>
<path d="M13.7109 205.433V207H3.75V205.433H13.7109ZM4.2041 185.672V207H2.53418V185.672H4.2041ZM12.4658 195.223V196.79H3.75V195.223H12.4658ZM13.6377 185.672V187.239H3.75V185.672H13.6377ZM18.4414 194.417V207H16.8008V191.15H18.3682L18.4414 194.417ZM18.1338 198.094L17.3574 197.669C17.3965 196.731 17.5381 195.853 17.7822 195.032C18.0361 194.202 18.3877 193.475 18.8369 192.85C19.2861 192.225 19.8281 191.736 20.4629 191.385C21.1074 191.033 21.8398 190.857 22.6602 190.857C23.2949 190.857 23.876 190.965 24.4033 191.18C24.9307 191.385 25.3848 191.712 25.7656 192.161C26.1465 192.601 26.4346 193.177 26.6299 193.89C26.835 194.603 26.9375 195.457 26.9375 196.453V207H25.3262V196.512C25.3262 195.457 25.1895 194.637 24.916 194.051C24.6523 193.455 24.2812 193.035 23.8027 192.791C23.334 192.537 22.7822 192.41 22.1475 192.41C21.415 192.41 20.7949 192.591 20.2871 192.952C19.7793 193.313 19.3691 193.782 19.0566 194.358C18.7441 194.935 18.5146 195.555 18.3682 196.219C18.2217 196.873 18.1436 197.498 18.1338 198.094ZM26.9229 196.717L25.8389 196.775C25.8779 196.004 26.0244 195.267 26.2783 194.563C26.5322 193.851 26.8838 193.216 27.333 192.659C27.7822 192.103 28.3193 191.663 28.9443 191.341C29.5791 191.019 30.2969 190.857 31.0977 190.857C31.8008 190.857 32.4209 190.97 32.958 191.194C33.5049 191.409 33.9639 191.751 34.335 192.22C34.7158 192.688 35.0039 193.289 35.1992 194.021C35.3945 194.754 35.4922 195.633 35.4922 196.658V207H33.8516V196.644C33.8516 195.53 33.7197 194.671 33.4561 194.065C33.1924 193.45 32.8213 193.021 32.3428 192.776C31.874 192.522 31.3223 192.4 30.6875 192.41C30.0723 192.41 29.5303 192.547 29.0615 192.82C28.6025 193.084 28.2168 193.431 27.9043 193.86C27.6016 194.29 27.3672 194.759 27.2012 195.267C27.0449 195.765 26.9521 196.248 26.9229 196.717ZM41.1162 194.197V213.094H39.4902V191.15H40.9844L41.1162 194.197ZM50.3008 198.343V199.822C50.3008 201.102 50.1885 202.21 49.9639 203.147C49.7393 204.085 49.4072 204.861 48.9678 205.477C48.5283 206.092 47.9961 206.551 47.3711 206.854C46.7461 207.156 46.0332 207.308 45.2324 207.308C44.4316 207.308 43.7285 207.176 43.123 206.912C42.5273 206.639 42.0146 206.253 41.585 205.755C41.165 205.247 40.8232 204.651 40.5596 203.968C40.3057 203.284 40.1299 202.532 40.0322 201.712V196.834C40.1494 195.936 40.3398 195.12 40.6035 194.388C40.8672 193.655 41.209 193.025 41.6289 192.498C42.0488 191.971 42.5518 191.565 43.1377 191.282C43.7334 190.999 44.417 190.857 45.1885 190.857C45.999 190.857 46.7217 190.999 47.3564 191.282C47.9912 191.556 48.5283 191.995 48.9678 192.601C49.417 193.196 49.749 193.973 49.9639 194.93C50.1885 195.877 50.3008 197.015 50.3008 198.343ZM48.6895 199.822V198.343C48.6895 197.317 48.6113 196.438 48.4551 195.706C48.2988 194.964 48.0596 194.349 47.7373 193.86C47.4248 193.372 47.0195 193.011 46.5215 192.776C46.0332 192.532 45.457 192.41 44.793 192.41C44.1094 192.41 43.5283 192.537 43.0498 192.791C42.5713 193.035 42.1709 193.362 41.8486 193.772C41.5264 194.183 41.2725 194.632 41.0869 195.12C40.9014 195.599 40.7646 196.067 40.6768 196.526V202.093C40.833 202.747 41.0771 203.357 41.4092 203.924C41.7412 204.48 42.1855 204.93 42.7422 205.271C43.2988 205.613 43.9922 205.784 44.8223 205.784C45.4863 205.784 46.0576 205.667 46.5361 205.433C47.0244 205.188 47.4248 204.822 47.7373 204.334C48.0596 203.836 48.2988 203.216 48.4551 202.474C48.6113 201.731 48.6895 200.848 48.6895 199.822ZM53.2295 199.91V198.255C53.2295 197.054 53.3662 195.999 53.6396 195.091C53.9229 194.173 54.3184 193.401 54.8262 192.776C55.3438 192.142 55.9541 191.663 56.6572 191.341C57.3701 191.019 58.1514 190.857 59.001 190.857C59.8799 190.857 60.6709 191.019 61.374 191.341C62.0869 191.663 62.6973 192.142 63.2051 192.776C63.7227 193.401 64.1182 194.173 64.3916 195.091C64.6748 195.999 64.8164 197.054 64.8164 198.255V199.91C64.8164 201.102 64.6748 202.161 64.3916 203.089C64.1182 204.007 63.7227 204.778 63.2051 205.403C62.6973 206.028 62.0869 206.502 61.374 206.824C60.6709 207.146 59.8848 207.308 59.0156 207.308C58.166 207.308 57.3848 207.146 56.6719 206.824C55.959 206.492 55.3438 206.014 54.8262 205.389C54.3184 204.764 53.9229 203.992 53.6396 203.074C53.3662 202.156 53.2295 201.102 53.2295 199.91ZM54.8555 198.255V199.91C54.8555 200.809 54.9482 201.619 55.1338 202.342C55.3193 203.064 55.5928 203.685 55.9541 204.202C56.3154 204.71 56.75 205.101 57.2578 205.374C57.7754 205.647 58.3613 205.784 59.0156 205.784C59.7285 205.784 60.3438 205.647 60.8613 205.374C61.3887 205.101 61.8232 204.71 62.165 204.202C62.5166 203.685 62.7754 203.064 62.9414 202.342C63.1172 201.619 63.2051 200.809 63.2051 199.91V198.255C63.2051 197.356 63.1123 196.551 62.9268 195.838C62.7412 195.115 62.4629 194.5 62.0918 193.992C61.7305 193.475 61.291 193.079 60.7734 192.806C60.2559 192.522 59.6699 192.381 59.0156 192.381C58.3613 192.381 57.7754 192.522 57.2578 192.806C56.7402 193.079 56.3008 193.475 55.9395 193.992C55.5879 194.5 55.3193 195.115 55.1338 195.838C54.9482 196.551 54.8555 197.356 54.8555 198.255ZM71.9639 203.323L75.2158 191.15H76.3438L75.7725 194.402L72.4033 207H71.29L71.9639 203.323ZM68.8291 191.15L71.6709 203.396L72.1836 207H71.041L67.1738 191.15H68.8291ZM80.1963 203.338L82.9502 191.15H84.6055L80.7236 207H79.5957L80.1963 203.338ZM76.5781 191.15L79.7568 203.206L80.5039 207H79.376L75.9189 194.388L75.3916 191.15H76.5781ZM92.8955 207.308C92.0166 207.308 91.2109 207.166 90.4785 206.883C89.7461 206.59 89.1113 206.15 88.5742 205.564C88.0469 204.969 87.6367 204.222 87.3438 203.323C87.0508 202.415 86.9043 201.346 86.9043 200.115V198.284C86.9043 196.976 87.0557 195.853 87.3584 194.915C87.6709 193.968 88.0957 193.196 88.6328 192.601C89.1699 192.005 89.7803 191.565 90.4639 191.282C91.1475 190.999 91.8652 190.857 92.6172 190.857C93.4863 190.857 94.2529 190.999 94.917 191.282C95.5811 191.565 96.1328 191.995 96.5723 192.571C97.0215 193.138 97.3584 193.86 97.583 194.739C97.8174 195.618 97.9346 196.653 97.9346 197.845V199.207H87.8857V197.684H96.3086V197.273C96.2891 196.238 96.1426 195.359 95.8691 194.637C95.6055 193.904 95.2051 193.348 94.668 192.967C94.1309 192.576 93.4521 192.381 92.6318 192.381C92.0264 192.381 91.4697 192.493 90.9619 192.718C90.4639 192.933 90.0293 193.274 89.6582 193.743C89.2969 194.212 89.0186 194.822 88.8232 195.574C88.6279 196.326 88.5303 197.229 88.5303 198.284V200.115C88.5303 201.092 88.6328 201.937 88.8379 202.649C89.0527 203.353 89.3555 203.938 89.7461 204.407C90.1465 204.866 90.6201 205.213 91.167 205.447C91.7139 205.672 92.3193 205.784 92.9834 205.784C93.7939 205.784 94.5068 205.643 95.1221 205.359C95.7373 205.076 96.2842 204.651 96.7627 204.085L97.627 205.169C97.3438 205.56 96.9873 205.916 96.5576 206.238C96.1279 206.561 95.6152 206.819 95.0195 207.015C94.4238 207.21 93.7158 207.308 92.8955 207.308ZM102.797 193.772V207H101.171V191.15H102.753L102.797 193.772ZM107.411 191.033L107.353 192.674C107.187 192.635 107.025 192.61 106.869 192.601C106.723 192.581 106.552 192.571 106.356 192.571C105.741 192.571 105.199 192.708 104.73 192.981C104.271 193.255 103.881 193.641 103.559 194.139C103.246 194.627 103.002 195.198 102.826 195.853C102.66 196.497 102.562 197.195 102.533 197.947L101.977 198.196C101.977 197.171 102.064 196.214 102.24 195.325C102.416 194.437 102.685 193.66 103.046 192.996C103.417 192.322 103.881 191.8 104.438 191.429C104.994 191.048 105.658 190.857 106.43 190.857C106.605 190.857 106.786 190.877 106.972 190.916C107.167 190.945 107.313 190.984 107.411 191.033ZM111.805 191.15V207H110.179V191.15H111.805ZM109.93 186.58C109.93 186.238 110.022 185.955 110.208 185.73C110.403 185.496 110.667 185.379 110.999 185.379C111.341 185.379 111.604 185.496 111.79 185.73C111.985 185.955 112.083 186.238 112.083 186.58C112.083 186.912 111.985 187.19 111.79 187.415C111.604 187.64 111.341 187.752 110.999 187.752C110.667 187.752 110.403 187.64 110.208 187.415C110.022 187.19 109.93 186.912 109.93 186.58ZM117.707 194.534V207H116.081V191.15H117.619L117.707 194.534ZM117.341 198.094L116.623 197.669C116.652 196.731 116.804 195.853 117.077 195.032C117.351 194.202 117.717 193.475 118.176 192.85C118.645 192.225 119.196 191.736 119.831 191.385C120.466 191.033 121.174 190.857 121.955 190.857C122.609 190.857 123.2 190.965 123.728 191.18C124.255 191.395 124.699 191.736 125.061 192.205C125.422 192.664 125.7 193.265 125.896 194.007C126.091 194.739 126.188 195.628 126.188 196.673V207H124.577V196.658C124.577 195.574 124.455 194.725 124.211 194.109C123.967 193.484 123.615 193.045 123.156 192.791C122.707 192.537 122.165 192.41 121.53 192.41C120.856 192.41 120.261 192.591 119.743 192.952C119.226 193.313 118.791 193.782 118.439 194.358C118.088 194.935 117.819 195.555 117.634 196.219C117.448 196.873 117.351 197.498 117.341 198.094ZM139.034 191.15H140.528V207.396C140.528 208.772 140.313 209.896 139.884 210.765C139.454 211.634 138.844 212.273 138.053 212.684C137.262 213.104 136.324 213.313 135.24 213.313C134.723 213.313 134.166 213.226 133.57 213.05C132.984 212.884 132.428 212.635 131.9 212.303C131.383 211.98 130.943 211.59 130.582 211.131L131.344 209.959C131.891 210.574 132.481 211.033 133.116 211.336C133.751 211.648 134.42 211.805 135.123 211.805C135.934 211.805 136.622 211.658 137.188 211.365C137.755 211.082 138.185 210.623 138.478 209.988C138.771 209.354 138.917 208.509 138.917 207.454V194.637L139.034 191.15ZM129.718 199.822V198.343C129.718 197.015 129.835 195.877 130.069 194.93C130.304 193.973 130.646 193.196 131.095 192.601C131.554 191.995 132.101 191.556 132.735 191.282C133.37 190.999 134.088 190.857 134.889 190.857C135.66 190.857 136.334 190.999 136.91 191.282C137.496 191.565 137.994 191.971 138.404 192.498C138.814 193.025 139.146 193.655 139.4 194.388C139.654 195.12 139.84 195.936 139.957 196.834V201.58C139.859 202.41 139.684 203.177 139.43 203.88C139.186 204.583 138.854 205.188 138.434 205.696C138.023 206.204 137.521 206.6 136.925 206.883C136.339 207.166 135.65 207.308 134.859 207.308C134.068 207.308 133.355 207.156 132.721 206.854C132.086 206.551 131.544 206.092 131.095 205.477C130.646 204.861 130.304 204.085 130.069 203.147C129.835 202.21 129.718 201.102 129.718 199.822ZM131.358 198.343V199.822C131.358 200.848 131.432 201.731 131.578 202.474C131.734 203.216 131.969 203.831 132.281 204.319C132.594 204.798 132.989 205.154 133.468 205.389C133.956 205.623 134.532 205.74 135.196 205.74C136.017 205.74 136.705 205.569 137.262 205.228C137.818 204.876 138.258 204.417 138.58 203.851C138.912 203.274 139.161 202.649 139.327 201.976V196.541C139.229 196.072 139.088 195.599 138.902 195.12C138.717 194.642 138.463 194.197 138.141 193.787C137.828 193.367 137.433 193.035 136.954 192.791C136.476 192.537 135.895 192.41 135.211 192.41C134.547 192.41 133.971 192.532 133.482 192.776C132.994 193.011 132.594 193.372 132.281 193.86C131.969 194.339 131.734 194.949 131.578 195.691C131.432 196.434 131.358 197.317 131.358 198.343ZM156.273 191.15V192.615H149.506V191.15H156.273ZM151.938 187.093H153.578V203.133C153.578 203.865 153.656 204.417 153.812 204.788C153.969 205.159 154.174 205.408 154.428 205.535C154.682 205.652 154.95 205.711 155.233 205.711C155.458 205.711 155.668 205.696 155.863 205.667C156.068 205.638 156.254 205.604 156.42 205.564L156.464 207.059C156.288 207.127 156.054 207.181 155.761 207.22C155.468 207.269 155.17 207.293 154.867 207.293C154.311 207.293 153.812 207.166 153.373 206.912C152.934 206.658 152.582 206.229 152.318 205.623C152.064 205.008 151.938 204.173 151.938 203.118V187.093ZM161.209 184.5V207H159.583V184.5H161.209ZM160.843 198.094L160.125 197.669C160.154 196.731 160.306 195.853 160.579 195.032C160.853 194.202 161.219 193.475 161.678 192.85C162.146 192.225 162.698 191.736 163.333 191.385C163.968 191.033 164.676 190.857 165.457 190.857C166.111 190.857 166.702 190.965 167.229 191.18C167.757 191.395 168.201 191.736 168.562 192.205C168.924 192.664 169.202 193.265 169.397 194.007C169.593 194.739 169.69 195.628 169.69 196.673V207H168.079V196.658C168.079 195.574 167.957 194.725 167.713 194.109C167.469 193.484 167.117 193.045 166.658 192.791C166.209 192.537 165.667 192.41 165.032 192.41C164.358 192.41 163.763 192.591 163.245 192.952C162.728 193.313 162.293 193.782 161.941 194.358C161.59 194.935 161.321 195.555 161.136 196.219C160.95 196.873 160.853 197.498 160.843 198.094ZM178.991 207.308C178.112 207.308 177.307 207.166 176.574 206.883C175.842 206.59 175.207 206.15 174.67 205.564C174.143 204.969 173.732 204.222 173.439 203.323C173.146 202.415 173 201.346 173 200.115V198.284C173 196.976 173.151 195.853 173.454 194.915C173.767 193.968 174.191 193.196 174.729 192.601C175.266 192.005 175.876 191.565 176.56 191.282C177.243 190.999 177.961 190.857 178.713 190.857C179.582 190.857 180.349 190.999 181.013 191.282C181.677 191.565 182.229 191.995 182.668 192.571C183.117 193.138 183.454 193.86 183.679 194.739C183.913 195.618 184.03 196.653 184.03 197.845V199.207H173.981V197.684H182.404V197.273C182.385 196.238 182.238 195.359 181.965 194.637C181.701 193.904 181.301 193.348 180.764 192.967C180.227 192.576 179.548 192.381 178.728 192.381C178.122 192.381 177.565 192.493 177.058 192.718C176.56 192.933 176.125 193.274 175.754 193.743C175.393 194.212 175.114 194.822 174.919 195.574C174.724 196.326 174.626 197.229 174.626 198.284V200.115C174.626 201.092 174.729 201.937 174.934 202.649C175.148 203.353 175.451 203.938 175.842 204.407C176.242 204.866 176.716 205.213 177.263 205.447C177.81 205.672 178.415 205.784 179.079 205.784C179.89 205.784 180.603 205.643 181.218 205.359C181.833 205.076 182.38 204.651 182.858 204.085L183.723 205.169C183.439 205.56 183.083 205.916 182.653 206.238C182.224 206.561 181.711 206.819 181.115 207.015C180.52 207.21 179.812 207.308 178.991 207.308ZM197.388 203.323L200.64 191.15H201.768L201.196 194.402L197.827 207H196.714L197.388 203.323ZM194.253 191.15L197.095 203.396L197.607 207H196.465L192.598 191.15H194.253ZM205.62 203.338L208.374 191.15H210.029L206.147 207H205.02L205.62 203.338ZM202.002 191.15L205.181 203.206L205.928 207H204.8L201.343 194.388L200.815 191.15H202.002ZM212.489 199.91V198.255C212.489 197.054 212.626 195.999 212.899 195.091C213.183 194.173 213.578 193.401 214.086 192.776C214.604 192.142 215.214 191.663 215.917 191.341C216.63 191.019 217.411 190.857 218.261 190.857C219.14 190.857 219.931 191.019 220.634 191.341C221.347 191.663 221.957 192.142 222.465 192.776C222.982 193.401 223.378 194.173 223.651 195.091C223.935 195.999 224.076 197.054 224.076 198.255V199.91C224.076 201.102 223.935 202.161 223.651 203.089C223.378 204.007 222.982 204.778 222.465 205.403C221.957 206.028 221.347 206.502 220.634 206.824C219.931 207.146 219.145 207.308 218.275 207.308C217.426 207.308 216.645 207.146 215.932 206.824C215.219 206.492 214.604 206.014 214.086 205.389C213.578 204.764 213.183 203.992 212.899 203.074C212.626 202.156 212.489 201.102 212.489 199.91ZM214.115 198.255V199.91C214.115 200.809 214.208 201.619 214.394 202.342C214.579 203.064 214.853 203.685 215.214 204.202C215.575 204.71 216.01 205.101 216.518 205.374C217.035 205.647 217.621 205.784 218.275 205.784C218.988 205.784 219.604 205.647 220.121 205.374C220.648 205.101 221.083 204.71 221.425 204.202C221.776 203.685 222.035 203.064 222.201 202.342C222.377 201.619 222.465 200.809 222.465 199.91V198.255C222.465 197.356 222.372 196.551 222.187 195.838C222.001 195.115 221.723 194.5 221.352 193.992C220.99 193.475 220.551 193.079 220.033 192.806C219.516 192.522 218.93 192.381 218.275 192.381C217.621 192.381 217.035 192.522 216.518 192.806C216 193.079 215.561 193.475 215.199 193.992C214.848 194.5 214.579 195.115 214.394 195.838C214.208 196.551 214.115 197.356 214.115 198.255ZM229.217 193.772V207H227.591V191.15H229.173L229.217 193.772ZM233.831 191.033L233.772 192.674C233.606 192.635 233.445 192.61 233.289 192.601C233.143 192.581 232.972 192.571 232.776 192.571C232.161 192.571 231.619 192.708 231.15 192.981C230.691 193.255 230.301 193.641 229.979 194.139C229.666 194.627 229.422 195.198 229.246 195.853C229.08 196.497 228.982 197.195 228.953 197.947L228.396 198.196C228.396 197.171 228.484 196.214 228.66 195.325C228.836 194.437 229.104 193.66 229.466 192.996C229.837 192.322 230.301 191.8 230.857 191.429C231.414 191.048 232.078 190.857 232.85 190.857C233.025 190.857 233.206 190.877 233.392 190.916C233.587 190.945 233.733 190.984 233.831 191.033ZM238.225 184.5V207H236.599V184.5H238.225ZM251.114 203.924V184.5H252.726V207H251.217L251.114 203.924ZM241.915 199.822V198.343C241.915 197.015 242.032 195.877 242.267 194.93C242.511 193.973 242.857 193.196 243.307 192.601C243.766 191.995 244.312 191.556 244.947 191.282C245.582 190.999 246.295 190.857 247.086 190.857C247.857 190.857 248.531 191.004 249.107 191.297C249.693 191.58 250.191 191.985 250.602 192.513C251.012 193.04 251.344 193.67 251.598 194.402C251.852 195.125 252.037 195.936 252.154 196.834V201.58C252.057 202.42 251.881 203.191 251.627 203.895C251.383 204.588 251.051 205.188 250.631 205.696C250.221 206.204 249.718 206.6 249.122 206.883C248.526 207.166 247.838 207.308 247.057 207.308C246.266 207.308 245.553 207.156 244.918 206.854C244.293 206.551 243.756 206.092 243.307 205.477C242.857 204.861 242.511 204.085 242.267 203.147C242.032 202.21 241.915 201.102 241.915 199.822ZM243.556 198.343V199.822C243.556 200.848 243.629 201.731 243.775 202.474C243.922 203.216 244.151 203.831 244.464 204.319C244.786 204.798 245.187 205.154 245.665 205.389C246.153 205.623 246.725 205.74 247.379 205.74C248.209 205.74 248.902 205.569 249.459 205.228C250.016 204.876 250.46 204.417 250.792 203.851C251.134 203.274 251.383 202.645 251.539 201.961V196.526C251.441 196.058 251.295 195.584 251.1 195.105C250.914 194.627 250.665 194.183 250.353 193.772C250.04 193.362 249.645 193.035 249.166 192.791C248.688 192.537 248.102 192.41 247.408 192.41C246.744 192.41 246.168 192.532 245.68 192.776C245.191 193.011 244.791 193.372 244.479 193.86C244.166 194.339 243.932 194.949 243.775 195.691C243.629 196.434 243.556 197.317 243.556 198.343ZM268.5 191.15V192.615H261.732V191.15H268.5ZM264.164 187.093H265.805V203.133C265.805 203.865 265.883 204.417 266.039 204.788C266.195 205.159 266.4 205.408 266.654 205.535C266.908 205.652 267.177 205.711 267.46 205.711C267.685 205.711 267.895 205.696 268.09 205.667C268.295 205.638 268.48 205.604 268.646 205.564L268.69 207.059C268.515 207.127 268.28 207.181 267.987 207.22C267.694 207.269 267.396 207.293 267.094 207.293C266.537 207.293 266.039 207.166 265.6 206.912C265.16 206.658 264.809 206.229 264.545 205.623C264.291 205.008 264.164 204.173 264.164 203.118V187.093ZM270.901 199.91V198.255C270.901 197.054 271.038 195.999 271.312 195.091C271.595 194.173 271.99 193.401 272.498 192.776C273.016 192.142 273.626 191.663 274.329 191.341C275.042 191.019 275.823 190.857 276.673 190.857C277.552 190.857 278.343 191.019 279.046 191.341C279.759 191.663 280.369 192.142 280.877 192.776C281.395 193.401 281.79 194.173 282.063 195.091C282.347 195.999 282.488 197.054 282.488 198.255V199.91C282.488 201.102 282.347 202.161 282.063 203.089C281.79 204.007 281.395 204.778 280.877 205.403C280.369 206.028 279.759 206.502 279.046 206.824C278.343 207.146 277.557 207.308 276.688 207.308C275.838 207.308 275.057 207.146 274.344 206.824C273.631 206.492 273.016 206.014 272.498 205.389C271.99 204.764 271.595 203.992 271.312 203.074C271.038 202.156 270.901 201.102 270.901 199.91ZM272.527 198.255V199.91C272.527 200.809 272.62 201.619 272.806 202.342C272.991 203.064 273.265 203.685 273.626 204.202C273.987 204.71 274.422 205.101 274.93 205.374C275.447 205.647 276.033 205.784 276.688 205.784C277.4 205.784 278.016 205.647 278.533 205.374C279.061 205.101 279.495 204.71 279.837 204.202C280.188 203.685 280.447 203.064 280.613 202.342C280.789 201.619 280.877 200.809 280.877 199.91V198.255C280.877 197.356 280.784 196.551 280.599 195.838C280.413 195.115 280.135 194.5 279.764 193.992C279.402 193.475 278.963 193.079 278.445 192.806C277.928 192.522 277.342 192.381 276.688 192.381C276.033 192.381 275.447 192.522 274.93 192.806C274.412 193.079 273.973 193.475 273.611 193.992C273.26 194.5 272.991 195.115 272.806 195.838C272.62 196.551 272.527 197.356 272.527 198.255ZM301.104 203.924V184.5H302.716V207H301.207L301.104 203.924ZM291.905 199.822V198.343C291.905 197.015 292.022 195.877 292.257 194.93C292.501 193.973 292.848 193.196 293.297 192.601C293.756 191.995 294.303 191.556 294.938 191.282C295.572 190.999 296.285 190.857 297.076 190.857C297.848 190.857 298.521 191.004 299.098 191.297C299.684 191.58 300.182 191.985 300.592 192.513C301.002 193.04 301.334 193.67 301.588 194.402C301.842 195.125 302.027 195.936 302.145 196.834V201.58C302.047 202.42 301.871 203.191 301.617 203.895C301.373 204.588 301.041 205.188 300.621 205.696C300.211 206.204 299.708 206.6 299.112 206.883C298.517 207.166 297.828 207.308 297.047 207.308C296.256 207.308 295.543 207.156 294.908 206.854C294.283 206.551 293.746 206.092 293.297 205.477C292.848 204.861 292.501 204.085 292.257 203.147C292.022 202.21 291.905 201.102 291.905 199.822ZM293.546 198.343V199.822C293.546 200.848 293.619 201.731 293.766 202.474C293.912 203.216 294.142 203.831 294.454 204.319C294.776 204.798 295.177 205.154 295.655 205.389C296.144 205.623 296.715 205.74 297.369 205.74C298.199 205.74 298.893 205.569 299.449 205.228C300.006 204.876 300.45 204.417 300.782 203.851C301.124 203.274 301.373 202.645 301.529 201.961V196.526C301.432 196.058 301.285 195.584 301.09 195.105C300.904 194.627 300.655 194.183 300.343 193.772C300.03 193.362 299.635 193.035 299.156 192.791C298.678 192.537 298.092 192.41 297.398 192.41C296.734 192.41 296.158 192.532 295.67 192.776C295.182 193.011 294.781 193.372 294.469 193.86C294.156 194.339 293.922 194.949 293.766 195.691C293.619 196.434 293.546 197.317 293.546 198.343ZM312.075 207.308C311.196 207.308 310.391 207.166 309.658 206.883C308.926 206.59 308.291 206.15 307.754 205.564C307.227 204.969 306.816 204.222 306.523 203.323C306.23 202.415 306.084 201.346 306.084 200.115V198.284C306.084 196.976 306.235 195.853 306.538 194.915C306.851 193.968 307.275 193.196 307.812 192.601C308.35 192.005 308.96 191.565 309.644 191.282C310.327 190.999 311.045 190.857 311.797 190.857C312.666 190.857 313.433 190.999 314.097 191.282C314.761 191.565 315.312 191.995 315.752 192.571C316.201 193.138 316.538 193.86 316.763 194.739C316.997 195.618 317.114 196.653 317.114 197.845V199.207H307.065V197.684H315.488V197.273C315.469 196.238 315.322 195.359 315.049 194.637C314.785 193.904 314.385 193.348 313.848 192.967C313.311 192.576 312.632 192.381 311.812 192.381C311.206 192.381 310.649 192.493 310.142 192.718C309.644 192.933 309.209 193.274 308.838 193.743C308.477 194.212 308.198 194.822 308.003 195.574C307.808 196.326 307.71 197.229 307.71 198.284V200.115C307.71 201.092 307.812 201.937 308.018 202.649C308.232 203.353 308.535 203.938 308.926 204.407C309.326 204.866 309.8 205.213 310.347 205.447C310.894 205.672 311.499 205.784 312.163 205.784C312.974 205.784 313.687 205.643 314.302 205.359C314.917 205.076 315.464 204.651 315.942 204.085L316.807 205.169C316.523 205.56 316.167 205.916 315.737 206.238C315.308 206.561 314.795 206.819 314.199 207.015C313.604 207.21 312.896 207.308 312.075 207.308ZM324.101 205.286L328.246 191.15H329.916L324.979 207H323.808L324.101 205.286ZM320.395 191.15L324.599 205.33L324.833 207H323.676L318.725 191.15H320.395ZM337.649 207.308C336.771 207.308 335.965 207.166 335.232 206.883C334.5 206.59 333.865 206.15 333.328 205.564C332.801 204.969 332.391 204.222 332.098 203.323C331.805 202.415 331.658 201.346 331.658 200.115V198.284C331.658 196.976 331.81 195.853 332.112 194.915C332.425 193.968 332.85 193.196 333.387 192.601C333.924 192.005 334.534 191.565 335.218 191.282C335.901 190.999 336.619 190.857 337.371 190.857C338.24 190.857 339.007 190.999 339.671 191.282C340.335 191.565 340.887 191.995 341.326 192.571C341.775 193.138 342.112 193.86 342.337 194.739C342.571 195.618 342.688 196.653 342.688 197.845V199.207H332.64V197.684H341.062V197.273C341.043 196.238 340.896 195.359 340.623 194.637C340.359 193.904 339.959 193.348 339.422 192.967C338.885 192.576 338.206 192.381 337.386 192.381C336.78 192.381 336.224 192.493 335.716 192.718C335.218 192.933 334.783 193.274 334.412 193.743C334.051 194.212 333.772 194.822 333.577 195.574C333.382 196.326 333.284 197.229 333.284 198.284V200.115C333.284 201.092 333.387 201.937 333.592 202.649C333.807 203.353 334.109 203.938 334.5 204.407C334.9 204.866 335.374 205.213 335.921 205.447C336.468 205.672 337.073 205.784 337.737 205.784C338.548 205.784 339.261 205.643 339.876 205.359C340.491 205.076 341.038 204.651 341.517 204.085L342.381 205.169C342.098 205.56 341.741 205.916 341.312 206.238C340.882 206.561 340.369 206.819 339.773 207.015C339.178 207.21 338.47 207.308 337.649 207.308ZM347.727 184.5V207H346.101V184.5H347.727ZM351.388 199.91V198.255C351.388 197.054 351.524 195.999 351.798 195.091C352.081 194.173 352.477 193.401 352.984 192.776C353.502 192.142 354.112 191.663 354.815 191.341C355.528 191.019 356.31 190.857 357.159 190.857C358.038 190.857 358.829 191.019 359.532 191.341C360.245 191.663 360.855 192.142 361.363 192.776C361.881 193.401 362.276 194.173 362.55 195.091C362.833 195.999 362.975 197.054 362.975 198.255V199.91C362.975 201.102 362.833 202.161 362.55 203.089C362.276 204.007 361.881 204.778 361.363 205.403C360.855 206.028 360.245 206.502 359.532 206.824C358.829 207.146 358.043 207.308 357.174 207.308C356.324 207.308 355.543 207.146 354.83 206.824C354.117 206.492 353.502 206.014 352.984 205.389C352.477 204.764 352.081 203.992 351.798 203.074C351.524 202.156 351.388 201.102 351.388 199.91ZM353.014 198.255V199.91C353.014 200.809 353.106 201.619 353.292 202.342C353.478 203.064 353.751 203.685 354.112 204.202C354.474 204.71 354.908 205.101 355.416 205.374C355.934 205.647 356.52 205.784 357.174 205.784C357.887 205.784 358.502 205.647 359.02 205.374C359.547 205.101 359.981 204.71 360.323 204.202C360.675 203.685 360.934 203.064 361.1 202.342C361.275 201.619 361.363 200.809 361.363 199.91V198.255C361.363 197.356 361.271 196.551 361.085 195.838C360.899 195.115 360.621 194.5 360.25 193.992C359.889 193.475 359.449 193.079 358.932 192.806C358.414 192.522 357.828 192.381 357.174 192.381C356.52 192.381 355.934 192.522 355.416 192.806C354.898 193.079 354.459 193.475 354.098 193.992C353.746 194.5 353.478 195.115 353.292 195.838C353.106 196.551 353.014 197.356 353.014 198.255ZM368.101 194.197V213.094H366.475V191.15H367.969L368.101 194.197ZM377.285 198.343V199.822C377.285 201.102 377.173 202.21 376.948 203.147C376.724 204.085 376.392 204.861 375.952 205.477C375.513 206.092 374.98 206.551 374.355 206.854C373.73 207.156 373.018 207.308 372.217 207.308C371.416 207.308 370.713 207.176 370.107 206.912C369.512 206.639 368.999 206.253 368.569 205.755C368.149 205.247 367.808 204.651 367.544 203.968C367.29 203.284 367.114 202.532 367.017 201.712V196.834C367.134 195.936 367.324 195.12 367.588 194.388C367.852 193.655 368.193 193.025 368.613 192.498C369.033 191.971 369.536 191.565 370.122 191.282C370.718 190.999 371.401 190.857 372.173 190.857C372.983 190.857 373.706 190.999 374.341 191.282C374.976 191.556 375.513 191.995 375.952 192.601C376.401 193.196 376.733 193.973 376.948 194.93C377.173 195.877 377.285 197.015 377.285 198.343ZM375.674 199.822V198.343C375.674 197.317 375.596 196.438 375.439 195.706C375.283 194.964 375.044 194.349 374.722 193.86C374.409 193.372 374.004 193.011 373.506 192.776C373.018 192.532 372.441 192.41 371.777 192.41C371.094 192.41 370.513 192.537 370.034 192.791C369.556 193.035 369.155 193.362 368.833 193.772C368.511 194.183 368.257 194.632 368.071 195.12C367.886 195.599 367.749 196.067 367.661 196.526V202.093C367.817 202.747 368.062 203.357 368.394 203.924C368.726 204.48 369.17 204.93 369.727 205.271C370.283 205.613 370.977 205.784 371.807 205.784C372.471 205.784 373.042 205.667 373.521 205.433C374.009 205.188 374.409 204.822 374.722 204.334C375.044 203.836 375.283 203.216 375.439 202.474C375.596 201.731 375.674 200.848 375.674 199.822ZM392.459 191.15V192.615H385.691V191.15H392.459ZM388.123 187.093H389.764V203.133C389.764 203.865 389.842 204.417 389.998 204.788C390.154 205.159 390.359 205.408 390.613 205.535C390.867 205.652 391.136 205.711 391.419 205.711C391.644 205.711 391.854 205.696 392.049 205.667C392.254 205.638 392.439 205.604 392.605 205.564L392.649 207.059C392.474 207.127 392.239 207.181 391.946 207.22C391.653 207.269 391.355 207.293 391.053 207.293C390.496 207.293 389.998 207.166 389.559 206.912C389.119 206.658 388.768 206.229 388.504 205.623C388.25 205.008 388.123 204.173 388.123 203.118V187.093ZM400.983 207.308C400.104 207.308 399.299 207.166 398.566 206.883C397.834 206.59 397.199 206.15 396.662 205.564C396.135 204.969 395.725 204.222 395.432 203.323C395.139 202.415 394.992 201.346 394.992 200.115V198.284C394.992 196.976 395.144 195.853 395.446 194.915C395.759 193.968 396.184 193.196 396.721 192.601C397.258 192.005 397.868 191.565 398.552 191.282C399.235 190.999 399.953 190.857 400.705 190.857C401.574 190.857 402.341 190.999 403.005 191.282C403.669 191.565 404.221 191.995 404.66 192.571C405.109 193.138 405.446 193.86 405.671 194.739C405.905 195.618 406.022 196.653 406.022 197.845V199.207H395.974V197.684H404.396V197.273C404.377 196.238 404.23 195.359 403.957 194.637C403.693 193.904 403.293 193.348 402.756 192.967C402.219 192.576 401.54 192.381 400.72 192.381C400.114 192.381 399.558 192.493 399.05 192.718C398.552 192.933 398.117 193.274 397.746 193.743C397.385 194.212 397.106 194.822 396.911 195.574C396.716 196.326 396.618 197.229 396.618 198.284V200.115C396.618 201.092 396.721 201.937 396.926 202.649C397.141 203.353 397.443 203.938 397.834 204.407C398.234 204.866 398.708 205.213 399.255 205.447C399.802 205.672 400.407 205.784 401.071 205.784C401.882 205.784 402.595 205.643 403.21 205.359C403.825 205.076 404.372 204.651 404.851 204.085L405.715 205.169C405.432 205.56 405.075 205.916 404.646 206.238C404.216 206.561 403.703 206.819 403.107 207.015C402.512 207.21 401.804 207.308 400.983 207.308ZM414.254 205.784C414.859 205.784 415.426 205.672 415.953 205.447C416.49 205.223 416.93 204.842 417.271 204.305C417.613 203.768 417.809 203.03 417.857 202.093H419.41C419.361 203.216 419.098 204.168 418.619 204.949C418.141 205.73 417.521 206.321 416.759 206.722C416.007 207.112 415.172 207.308 414.254 207.308C413.297 207.308 412.462 207.151 411.749 206.839C411.046 206.526 410.455 206.062 409.977 205.447C409.498 204.822 409.137 204.056 408.893 203.147C408.648 202.239 408.526 201.18 408.526 199.969V198.182C408.526 196.971 408.648 195.911 408.893 195.003C409.137 194.095 409.498 193.333 409.977 192.718C410.455 192.103 411.051 191.639 411.764 191.326C412.477 191.014 413.307 190.857 414.254 190.857C415.221 190.857 416.085 191.062 416.847 191.473C417.608 191.873 418.214 192.488 418.663 193.318C419.122 194.148 419.371 195.208 419.41 196.497H417.857C417.818 195.511 417.633 194.72 417.301 194.124C416.979 193.519 416.554 193.079 416.026 192.806C415.499 192.522 414.908 192.381 414.254 192.381C413.502 192.381 412.862 192.513 412.335 192.776C411.817 193.03 411.397 193.406 411.075 193.904C410.753 194.393 410.519 194.998 410.372 195.721C410.226 196.434 410.152 197.254 410.152 198.182V199.969C410.152 200.896 410.226 201.722 410.372 202.444C410.519 203.167 410.753 203.777 411.075 204.275C411.397 204.773 411.822 205.149 412.35 205.403C412.877 205.657 413.512 205.784 414.254 205.784ZM424.229 184.5V207H422.603V184.5H424.229ZM423.862 198.094L423.145 197.669C423.174 196.731 423.325 195.853 423.599 195.032C423.872 194.202 424.238 193.475 424.697 192.85C425.166 192.225 425.718 191.736 426.353 191.385C426.987 191.033 427.695 190.857 428.477 190.857C429.131 190.857 429.722 190.965 430.249 191.18C430.776 191.395 431.221 191.736 431.582 192.205C431.943 192.664 432.222 193.265 432.417 194.007C432.612 194.739 432.71 195.628 432.71 196.673V207H431.099V196.658C431.099 195.574 430.977 194.725 430.732 194.109C430.488 193.484 430.137 193.045 429.678 192.791C429.229 192.537 428.687 192.41 428.052 192.41C427.378 192.41 426.782 192.591 426.265 192.952C425.747 193.313 425.312 193.782 424.961 194.358C424.609 194.935 424.341 195.555 424.155 196.219C423.97 196.873 423.872 197.498 423.862 198.094ZM438.422 194.534V207H436.796V191.15H438.334L438.422 194.534ZM438.056 198.094L437.338 197.669C437.367 196.731 437.519 195.853 437.792 195.032C438.065 194.202 438.432 193.475 438.891 192.85C439.359 192.225 439.911 191.736 440.546 191.385C441.181 191.033 441.889 190.857 442.67 190.857C443.324 190.857 443.915 190.965 444.442 191.18C444.97 191.395 445.414 191.736 445.775 192.205C446.137 192.664 446.415 193.265 446.61 194.007C446.806 194.739 446.903 195.628 446.903 196.673V207H445.292V196.658C445.292 195.574 445.17 194.725 444.926 194.109C444.682 193.484 444.33 193.045 443.871 192.791C443.422 192.537 442.88 192.41 442.245 192.41C441.571 192.41 440.976 192.591 440.458 192.952C439.94 193.313 439.506 193.782 439.154 194.358C438.803 194.935 438.534 195.555 438.349 196.219C438.163 196.873 438.065 197.498 438.056 198.094ZM450.403 199.91V198.255C450.403 197.054 450.54 195.999 450.813 195.091C451.097 194.173 451.492 193.401 452 192.776C452.518 192.142 453.128 191.663 453.831 191.341C454.544 191.019 455.325 190.857 456.175 190.857C457.054 190.857 457.845 191.019 458.548 191.341C459.261 191.663 459.871 192.142 460.379 192.776C460.896 193.401 461.292 194.173 461.565 195.091C461.849 195.999 461.99 197.054 461.99 198.255V199.91C461.99 201.102 461.849 202.161 461.565 203.089C461.292 204.007 460.896 204.778 460.379 205.403C459.871 206.028 459.261 206.502 458.548 206.824C457.845 207.146 457.059 207.308 456.189 207.308C455.34 207.308 454.559 207.146 453.846 206.824C453.133 206.492 452.518 206.014 452 205.389C451.492 204.764 451.097 203.992 450.813 203.074C450.54 202.156 450.403 201.102 450.403 199.91ZM452.029 198.255V199.91C452.029 200.809 452.122 201.619 452.308 202.342C452.493 203.064 452.767 203.685 453.128 204.202C453.489 204.71 453.924 205.101 454.432 205.374C454.949 205.647 455.535 205.784 456.189 205.784C456.902 205.784 457.518 205.647 458.035 205.374C458.562 205.101 458.997 204.71 459.339 204.202C459.69 203.685 459.949 203.064 460.115 202.342C460.291 201.619 460.379 200.809 460.379 199.91V198.255C460.379 197.356 460.286 196.551 460.101 195.838C459.915 195.115 459.637 194.5 459.266 193.992C458.904 193.475 458.465 193.079 457.947 192.806C457.43 192.522 456.844 192.381 456.189 192.381C455.535 192.381 454.949 192.522 454.432 192.806C453.914 193.079 453.475 193.475 453.113 193.992C452.762 194.5 452.493 195.115 452.308 195.838C452.122 196.551 452.029 197.356 452.029 198.255ZM467.307 184.5V207H465.681V184.5H467.307ZM470.968 199.91V198.255C470.968 197.054 471.104 195.999 471.378 195.091C471.661 194.173 472.057 193.401 472.564 192.776C473.082 192.142 473.692 191.663 474.396 191.341C475.108 191.019 475.89 190.857 476.739 190.857C477.618 190.857 478.409 191.019 479.112 191.341C479.825 191.663 480.436 192.142 480.943 192.776C481.461 193.401 481.856 194.173 482.13 195.091C482.413 195.999 482.555 197.054 482.555 198.255V199.91C482.555 201.102 482.413 202.161 482.13 203.089C481.856 204.007 481.461 204.778 480.943 205.403C480.436 206.028 479.825 206.502 479.112 206.824C478.409 207.146 477.623 207.308 476.754 207.308C475.904 207.308 475.123 207.146 474.41 206.824C473.697 206.492 473.082 206.014 472.564 205.389C472.057 204.764 471.661 203.992 471.378 203.074C471.104 202.156 470.968 201.102 470.968 199.91ZM472.594 198.255V199.91C472.594 200.809 472.687 201.619 472.872 202.342C473.058 203.064 473.331 203.685 473.692 204.202C474.054 204.71 474.488 205.101 474.996 205.374C475.514 205.647 476.1 205.784 476.754 205.784C477.467 205.784 478.082 205.647 478.6 205.374C479.127 205.101 479.562 204.71 479.903 204.202C480.255 203.685 480.514 203.064 480.68 202.342C480.855 201.619 480.943 200.809 480.943 199.91V198.255C480.943 197.356 480.851 196.551 480.665 195.838C480.479 195.115 480.201 194.5 479.83 193.992C479.469 193.475 479.029 193.079 478.512 192.806C477.994 192.522 477.408 192.381 476.754 192.381C476.1 192.381 475.514 192.522 474.996 192.806C474.479 193.079 474.039 193.475 473.678 193.992C473.326 194.5 473.058 195.115 472.872 195.838C472.687 196.551 472.594 197.356 472.594 198.255ZM494.8 191.15H496.294V207.396C496.294 208.772 496.079 209.896 495.649 210.765C495.22 211.634 494.609 212.273 493.818 212.684C493.027 213.104 492.09 213.313 491.006 213.313C490.488 213.313 489.932 213.226 489.336 213.05C488.75 212.884 488.193 212.635 487.666 212.303C487.148 211.98 486.709 211.59 486.348 211.131L487.109 209.959C487.656 210.574 488.247 211.033 488.882 211.336C489.517 211.648 490.186 211.805 490.889 211.805C491.699 211.805 492.388 211.658 492.954 211.365C493.521 211.082 493.95 210.623 494.243 209.988C494.536 209.354 494.683 208.509 494.683 207.454V194.637L494.8 191.15ZM485.483 199.822V198.343C485.483 197.015 485.601 195.877 485.835 194.93C486.069 193.973 486.411 193.196 486.86 192.601C487.319 191.995 487.866 191.556 488.501 191.282C489.136 190.999 489.854 190.857 490.654 190.857C491.426 190.857 492.1 190.999 492.676 191.282C493.262 191.565 493.76 191.971 494.17 192.498C494.58 193.025 494.912 193.655 495.166 194.388C495.42 195.12 495.605 195.936 495.723 196.834V201.58C495.625 202.41 495.449 203.177 495.195 203.88C494.951 204.583 494.619 205.188 494.199 205.696C493.789 206.204 493.286 206.6 492.69 206.883C492.104 207.166 491.416 207.308 490.625 207.308C489.834 207.308 489.121 207.156 488.486 206.854C487.852 206.551 487.31 206.092 486.86 205.477C486.411 204.861 486.069 204.085 485.835 203.147C485.601 202.21 485.483 201.102 485.483 199.822ZM487.124 198.343V199.822C487.124 200.848 487.197 201.731 487.344 202.474C487.5 203.216 487.734 203.831 488.047 204.319C488.359 204.798 488.755 205.154 489.233 205.389C489.722 205.623 490.298 205.74 490.962 205.74C491.782 205.74 492.471 205.569 493.027 205.228C493.584 204.876 494.023 204.417 494.346 203.851C494.678 203.274 494.927 202.649 495.093 201.976V196.541C494.995 196.072 494.854 195.599 494.668 195.12C494.482 194.642 494.229 194.197 493.906 193.787C493.594 193.367 493.198 193.035 492.72 192.791C492.241 192.537 491.66 192.41 490.977 192.41C490.312 192.41 489.736 192.532 489.248 192.776C488.76 193.011 488.359 193.372 488.047 193.86C487.734 194.339 487.5 194.949 487.344 195.691C487.197 196.434 487.124 197.317 487.124 198.343ZM504.32 205.418L508.393 191.15H510.136L504.54 209.534C504.433 209.896 504.286 210.296 504.101 210.735C503.915 211.185 503.681 211.609 503.397 212.01C503.114 212.42 502.758 212.752 502.328 213.006C501.908 213.27 501.396 213.401 500.79 213.401C500.624 213.401 500.414 213.382 500.16 213.343C499.916 213.304 499.74 213.265 499.633 213.226L499.618 211.717C499.706 211.736 499.833 211.756 499.999 211.775C500.175 211.805 500.292 211.819 500.351 211.819C500.878 211.819 501.322 211.707 501.684 211.482C502.045 211.268 502.348 210.95 502.592 210.53C502.846 210.11 503.065 209.583 503.251 208.948L504.32 205.418ZM500.673 191.15L504.76 204.729L505.185 206.575L504.013 207.308L498.9 191.15H500.673ZM525.646 191.15V194.417H517.399V191.15H525.646ZM519.099 187.225H523.552V201.99C523.552 202.42 523.586 202.752 523.654 202.986C523.732 203.221 523.864 203.387 524.05 203.484C524.235 203.572 524.484 203.616 524.797 203.616C525.021 203.616 525.212 203.606 525.368 203.587C525.534 203.567 525.671 203.543 525.778 203.514L525.749 206.883C525.407 207.01 525.041 207.107 524.65 207.176C524.27 207.254 523.84 207.293 523.361 207.293C522.482 207.293 521.726 207.132 521.091 206.81C520.456 206.487 519.963 205.975 519.611 205.271C519.27 204.568 519.099 203.65 519.099 202.518V187.225ZM531.827 184.5V207H527.374V184.5H531.827ZM531.241 198.533L530.157 198.562C530.138 197.449 530.24 196.424 530.465 195.486C530.699 194.549 531.031 193.733 531.461 193.04C531.891 192.347 532.413 191.81 533.028 191.429C533.644 191.048 534.322 190.857 535.064 190.857C535.719 190.857 536.319 190.97 536.866 191.194C537.413 191.419 537.882 191.775 538.272 192.264C538.673 192.752 538.98 193.392 539.195 194.183C539.42 194.974 539.532 195.94 539.532 197.083V207H535.064V197.054C535.064 196.39 534.996 195.872 534.859 195.501C534.732 195.12 534.542 194.856 534.288 194.71C534.044 194.554 533.731 194.476 533.351 194.476C532.921 194.476 532.569 194.583 532.296 194.798C532.022 195.003 531.808 195.286 531.651 195.647C531.495 196.009 531.388 196.438 531.329 196.937C531.271 197.425 531.241 197.957 531.241 198.533ZM546.519 194.886V207H542.065V191.15H546.24L546.519 194.886ZM550.225 191.033L550.181 195.369C549.995 195.34 549.761 195.315 549.478 195.296C549.194 195.267 548.955 195.252 548.76 195.252C548.311 195.252 547.93 195.32 547.617 195.457C547.305 195.594 547.046 195.799 546.841 196.072C546.636 196.336 546.484 196.668 546.387 197.068C546.289 197.469 546.24 197.928 546.24 198.445L545.449 198.006C545.449 196.951 545.527 195.989 545.684 195.12C545.85 194.251 546.089 193.499 546.401 192.864C546.724 192.229 547.109 191.736 547.559 191.385C548.008 191.033 548.511 190.857 549.067 190.857C549.263 190.857 549.468 190.872 549.683 190.901C549.907 190.931 550.088 190.975 550.225 191.033ZM550.941 199.705V198.46C550.941 197.21 551.093 196.111 551.396 195.164C551.708 194.217 552.147 193.426 552.714 192.791C553.28 192.156 553.959 191.678 554.75 191.355C555.551 191.023 556.439 190.857 557.416 190.857C558.412 190.857 559.306 191.023 560.097 191.355C560.897 191.678 561.581 192.156 562.147 192.791C562.714 193.426 563.148 194.217 563.451 195.164C563.764 196.111 563.92 197.21 563.92 198.46V199.705C563.92 200.945 563.764 202.039 563.451 202.986C563.148 203.934 562.714 204.729 562.147 205.374C561.581 206.009 560.897 206.487 560.097 206.81C559.306 207.132 558.422 207.293 557.445 207.293C556.459 207.293 555.565 207.132 554.765 206.81C553.974 206.487 553.29 206.009 552.714 205.374C552.147 204.729 551.708 203.934 551.396 202.986C551.093 202.039 550.941 200.945 550.941 199.705ZM555.409 198.46V199.705C555.409 200.408 555.453 201.014 555.541 201.521C555.639 202.029 555.775 202.444 555.951 202.767C556.127 203.089 556.337 203.323 556.581 203.47C556.835 203.616 557.123 203.689 557.445 203.689C557.816 203.689 558.129 203.616 558.383 203.47C558.646 203.323 558.856 203.089 559.013 202.767C559.169 202.444 559.281 202.029 559.35 201.521C559.428 201.014 559.467 200.408 559.467 199.705V198.46C559.467 197.767 559.418 197.171 559.32 196.673C559.232 196.165 559.101 195.75 558.925 195.428C558.759 195.105 558.544 194.866 558.28 194.71C558.026 194.554 557.738 194.476 557.416 194.476C557.104 194.476 556.82 194.554 556.566 194.71C556.322 194.866 556.112 195.105 555.937 195.428C555.771 195.75 555.639 196.165 555.541 196.673C555.453 197.171 555.409 197.767 555.409 198.46ZM573.646 203.177V191.15H578.113V207H573.938L573.646 203.177ZM574.114 199.925L575.271 199.896C575.271 200.96 575.164 201.946 574.949 202.854C574.744 203.753 574.437 204.534 574.026 205.198C573.616 205.862 573.108 206.38 572.503 206.751C571.897 207.112 571.194 207.293 570.394 207.293C569.739 207.293 569.139 207.186 568.592 206.971C568.055 206.746 567.586 206.399 567.186 205.931C566.795 205.452 566.492 204.842 566.277 204.1C566.062 203.348 565.955 202.449 565.955 201.404V191.15H570.408V201.434C570.408 201.824 570.442 202.161 570.511 202.444C570.579 202.718 570.672 202.947 570.789 203.133C570.906 203.318 571.053 203.455 571.229 203.543C571.404 203.621 571.604 203.66 571.829 203.66C572.415 203.66 572.874 203.499 573.206 203.177C573.538 202.845 573.772 202.4 573.909 201.844C574.046 201.277 574.114 200.638 574.114 199.925ZM588.908 191.15H592.951V206.927C592.951 208.382 592.663 209.573 592.087 210.501C591.521 211.438 590.729 212.127 589.714 212.566C588.698 213.016 587.507 213.24 586.14 213.24C585.612 213.24 585.041 213.167 584.426 213.021C583.811 212.874 583.22 212.669 582.653 212.405C582.097 212.151 581.638 211.854 581.276 211.512L582.829 208.538C583.161 208.841 583.61 209.119 584.177 209.373C584.743 209.637 585.339 209.769 585.964 209.769C586.521 209.769 586.984 209.676 587.355 209.49C587.727 209.314 588.005 209.017 588.19 208.597C588.386 208.187 588.483 207.63 588.483 206.927V194.871L588.908 191.15ZM580.134 199.734V198.489C580.134 197.19 580.256 196.062 580.5 195.105C580.744 194.148 581.101 193.357 581.569 192.732C582.048 192.098 582.624 191.629 583.298 191.326C583.972 191.014 584.729 190.857 585.568 190.857C586.457 190.857 587.185 191.053 587.751 191.443C588.327 191.824 588.781 192.361 589.113 193.055C589.445 193.748 589.699 194.563 589.875 195.501C590.061 196.438 590.217 197.454 590.344 198.548V199.822C590.217 200.848 590.041 201.814 589.816 202.723C589.592 203.621 589.294 204.417 588.923 205.11C588.552 205.794 588.093 206.331 587.546 206.722C586.999 207.103 586.33 207.293 585.539 207.293C584.709 207.293 583.957 207.132 583.283 206.81C582.619 206.487 582.053 206.009 581.584 205.374C581.115 204.739 580.754 203.953 580.5 203.016C580.256 202.068 580.134 200.975 580.134 199.734ZM584.602 198.489V199.734C584.602 200.447 584.641 201.053 584.719 201.551C584.807 202.049 584.938 202.454 585.114 202.767C585.3 203.079 585.529 203.309 585.803 203.455C586.086 203.592 586.413 203.66 586.784 203.66C587.351 203.66 587.8 203.523 588.132 203.25C588.464 202.967 588.703 202.576 588.85 202.078C589.006 201.58 589.074 200.994 589.055 200.32V198.035C589.064 197.469 589.025 196.966 588.938 196.526C588.85 196.077 588.713 195.701 588.527 195.398C588.342 195.096 588.107 194.866 587.824 194.71C587.541 194.554 587.204 194.476 586.813 194.476C586.452 194.476 586.13 194.549 585.847 194.695C585.573 194.842 585.344 195.076 585.158 195.398C584.973 195.711 584.831 196.121 584.733 196.629C584.646 197.137 584.602 197.757 584.602 198.489ZM599.894 184.5V207H595.44V184.5H599.894ZM599.308 198.533L598.224 198.562C598.204 197.449 598.307 196.424 598.531 195.486C598.766 194.549 599.098 193.733 599.527 193.04C599.957 192.347 600.479 191.81 601.095 191.429C601.71 191.048 602.389 190.857 603.131 190.857C603.785 190.857 604.386 190.97 604.933 191.194C605.479 191.419 605.948 191.775 606.339 192.264C606.739 192.752 607.047 193.392 607.262 194.183C607.486 194.974 607.599 195.94 607.599 197.083V207H603.131V197.054C603.131 196.39 603.062 195.872 602.926 195.501C602.799 195.12 602.608 194.856 602.354 194.71C602.11 194.554 601.798 194.476 601.417 194.476C600.987 194.476 600.636 194.583 600.362 194.798C600.089 195.003 599.874 195.286 599.718 195.647C599.562 196.009 599.454 196.438 599.396 196.937C599.337 197.425 599.308 197.957 599.308 198.533ZM622.567 203.689C622.919 203.689 623.212 203.621 623.446 203.484C623.69 203.348 623.871 203.113 623.988 202.781C624.115 202.449 624.174 202 624.164 201.434H628.354C628.363 202.684 628.114 203.748 627.606 204.627C627.099 205.496 626.415 206.16 625.556 206.619C624.706 207.068 623.739 207.293 622.655 207.293C621.591 207.293 620.658 207.127 619.857 206.795C619.066 206.463 618.407 205.979 617.88 205.345C617.353 204.7 616.957 203.909 616.693 202.972C616.439 202.034 616.312 200.955 616.312 199.734V198.416C616.312 197.205 616.439 196.131 616.693 195.193C616.957 194.246 617.353 193.455 617.88 192.82C618.407 192.176 619.066 191.688 619.857 191.355C620.648 191.023 621.576 190.857 622.641 190.857C623.783 190.857 624.779 191.092 625.629 191.561C626.488 192.02 627.157 192.713 627.636 193.641C628.124 194.568 628.363 195.735 628.354 197.142H624.164C624.174 196.536 624.125 196.038 624.018 195.647C623.91 195.257 623.734 194.964 623.49 194.769C623.256 194.573 622.938 194.476 622.538 194.476C622.128 194.476 621.801 194.559 621.557 194.725C621.322 194.881 621.146 195.125 621.029 195.457C620.922 195.779 620.849 196.189 620.81 196.688C620.78 197.176 620.766 197.752 620.766 198.416V199.734C620.766 200.418 620.78 201.009 620.81 201.507C620.849 202.005 620.927 202.415 621.044 202.737C621.161 203.06 621.337 203.299 621.571 203.455C621.815 203.611 622.147 203.689 622.567 203.689ZM629.861 199.705V198.46C629.861 197.21 630.013 196.111 630.315 195.164C630.628 194.217 631.067 193.426 631.634 192.791C632.2 192.156 632.879 191.678 633.67 191.355C634.471 191.023 635.359 190.857 636.336 190.857C637.332 190.857 638.226 191.023 639.017 191.355C639.817 191.678 640.501 192.156 641.067 192.791C641.634 193.426 642.068 194.217 642.371 195.164C642.684 196.111 642.84 197.21 642.84 198.46V199.705C642.84 200.945 642.684 202.039 642.371 202.986C642.068 203.934 641.634 204.729 641.067 205.374C640.501 206.009 639.817 206.487 639.017 206.81C638.226 207.132 637.342 207.293 636.365 207.293C635.379 207.293 634.485 207.132 633.685 206.81C632.894 206.487 632.21 206.009 631.634 205.374C631.067 204.729 630.628 203.934 630.315 202.986C630.013 202.039 629.861 200.945 629.861 199.705ZM634.329 198.46V199.705C634.329 200.408 634.373 201.014 634.461 201.521C634.559 202.029 634.695 202.444 634.871 202.767C635.047 203.089 635.257 203.323 635.501 203.47C635.755 203.616 636.043 203.689 636.365 203.689C636.736 203.689 637.049 203.616 637.303 203.47C637.566 203.323 637.776 203.089 637.933 202.767C638.089 202.444 638.201 202.029 638.27 201.521C638.348 201.014 638.387 200.408 638.387 199.705V198.46C638.387 197.767 638.338 197.171 638.24 196.673C638.152 196.165 638.021 195.75 637.845 195.428C637.679 195.105 637.464 194.866 637.2 194.71C636.946 194.554 636.658 194.476 636.336 194.476C636.023 194.476 635.74 194.554 635.486 194.71C635.242 194.866 635.032 195.105 634.856 195.428C634.69 195.75 634.559 196.165 634.461 196.673C634.373 197.171 634.329 197.767 634.329 198.46ZM649.636 184.5V207H645.168V184.5H649.636ZM657.091 184.5V207H652.623V184.5H657.091ZM666.436 207.293C665.332 207.293 664.351 207.132 663.491 206.81C662.632 206.487 661.909 206.019 661.323 205.403C660.737 204.778 660.293 204.021 659.99 203.133C659.688 202.234 659.536 201.214 659.536 200.071V198.577C659.536 197.298 659.673 196.18 659.946 195.223C660.229 194.256 660.64 193.45 661.177 192.806C661.714 192.161 662.388 191.678 663.198 191.355C664.009 191.023 664.941 190.857 665.996 190.857C666.982 190.857 667.856 191.014 668.618 191.326C669.38 191.639 670.02 192.112 670.537 192.747C671.055 193.372 671.445 194.163 671.709 195.12C671.982 196.067 672.119 197.176 672.119 198.445V200.54H661.309V197.537H667.754V197.098C667.754 196.453 667.69 195.94 667.563 195.56C667.437 195.179 667.241 194.905 666.978 194.739C666.714 194.563 666.377 194.476 665.967 194.476C665.557 194.476 665.22 194.554 664.956 194.71C664.702 194.856 664.507 195.091 664.37 195.413C664.233 195.735 664.136 196.16 664.077 196.688C664.028 197.215 664.004 197.845 664.004 198.577V200.071C664.004 200.784 664.062 201.375 664.18 201.844C664.297 202.303 664.473 202.669 664.707 202.942C664.941 203.206 665.225 203.396 665.557 203.514C665.898 203.621 666.294 203.675 666.743 203.675C667.397 203.675 668.008 203.562 668.574 203.338C669.15 203.104 669.639 202.762 670.039 202.312L671.841 205.052C671.558 205.403 671.162 205.755 670.654 206.106C670.156 206.458 669.551 206.746 668.838 206.971C668.135 207.186 667.334 207.293 666.436 207.293ZM679.853 203.689C680.204 203.689 680.497 203.621 680.731 203.484C680.976 203.348 681.156 203.113 681.273 202.781C681.4 202.449 681.459 202 681.449 201.434H685.639C685.648 202.684 685.399 203.748 684.892 204.627C684.384 205.496 683.7 206.16 682.841 206.619C681.991 207.068 681.024 207.293 679.94 207.293C678.876 207.293 677.943 207.127 677.143 206.795C676.352 206.463 675.692 205.979 675.165 205.345C674.638 204.7 674.242 203.909 673.979 202.972C673.725 202.034 673.598 200.955 673.598 199.734V198.416C673.598 197.205 673.725 196.131 673.979 195.193C674.242 194.246 674.638 193.455 675.165 192.82C675.692 192.176 676.352 191.688 677.143 191.355C677.934 191.023 678.861 190.857 679.926 190.857C681.068 190.857 682.064 191.092 682.914 191.561C683.773 192.02 684.442 192.713 684.921 193.641C685.409 194.568 685.648 195.735 685.639 197.142H681.449C681.459 196.536 681.41 196.038 681.303 195.647C681.195 195.257 681.02 194.964 680.775 194.769C680.541 194.573 680.224 194.476 679.823 194.476C679.413 194.476 679.086 194.559 678.842 194.725C678.607 194.881 678.432 195.125 678.314 195.457C678.207 195.779 678.134 196.189 678.095 196.688C678.065 197.176 678.051 197.752 678.051 198.416V199.734C678.051 200.418 678.065 201.009 678.095 201.507C678.134 202.005 678.212 202.415 678.329 202.737C678.446 203.06 678.622 203.299 678.856 203.455C679.101 203.611 679.433 203.689 679.853 203.689ZM694.822 191.15V194.417H686.575V191.15H694.822ZM688.274 187.225H692.728V201.99C692.728 202.42 692.762 202.752 692.83 202.986C692.908 203.221 693.04 203.387 693.226 203.484C693.411 203.572 693.66 203.616 693.973 203.616C694.197 203.616 694.388 203.606 694.544 203.587C694.71 203.567 694.847 203.543 694.954 203.514L694.925 206.883C694.583 207.01 694.217 207.107 693.826 207.176C693.445 207.254 693.016 207.293 692.537 207.293C691.658 207.293 690.901 207.132 690.267 206.81C689.632 206.487 689.139 205.975 688.787 205.271C688.445 204.568 688.274 203.65 688.274 202.518V187.225ZM701.325 191.15V207H696.857V191.15H701.325ZM696.652 187.063C696.652 186.39 696.872 185.838 697.312 185.408C697.761 184.969 698.352 184.749 699.084 184.749C699.816 184.749 700.402 184.969 700.842 185.408C701.281 185.838 701.501 186.385 701.501 187.049C701.501 187.723 701.281 188.274 700.842 188.704C700.402 189.134 699.816 189.349 699.084 189.349C698.352 189.349 697.761 189.134 697.312 188.704C696.872 188.274 696.652 187.728 696.652 187.063ZM708.941 203.719L711.3 191.15H715.973L711.71 207H708.927L708.941 203.719ZM707.696 191.15L710.069 203.733V207H707.286L703.009 191.15H707.696ZM723.838 207.293C722.734 207.293 721.753 207.132 720.894 206.81C720.034 206.487 719.312 206.019 718.726 205.403C718.14 204.778 717.695 204.021 717.393 203.133C717.09 202.234 716.938 201.214 716.938 200.071V198.577C716.938 197.298 717.075 196.18 717.349 195.223C717.632 194.256 718.042 193.45 718.579 192.806C719.116 192.161 719.79 191.678 720.601 191.355C721.411 191.023 722.344 190.857 723.398 190.857C724.385 190.857 725.259 191.014 726.021 191.326C726.782 191.639 727.422 192.112 727.939 192.747C728.457 193.372 728.848 194.163 729.111 195.12C729.385 196.067 729.521 197.176 729.521 198.445V200.54H718.711V197.537H725.156V197.098C725.156 196.453 725.093 195.94 724.966 195.56C724.839 195.179 724.644 194.905 724.38 194.739C724.116 194.563 723.779 194.476 723.369 194.476C722.959 194.476 722.622 194.554 722.358 194.71C722.104 194.856 721.909 195.091 721.772 195.413C721.636 195.735 721.538 196.16 721.479 196.688C721.431 197.215 721.406 197.845 721.406 198.577V200.071C721.406 200.784 721.465 201.375 721.582 201.844C721.699 202.303 721.875 202.669 722.109 202.942C722.344 203.206 722.627 203.396 722.959 203.514C723.301 203.621 723.696 203.675 724.146 203.675C724.8 203.675 725.41 203.562 725.977 203.338C726.553 203.104 727.041 202.762 727.441 202.312L729.243 205.052C728.96 205.403 728.564 205.755 728.057 206.106C727.559 206.458 726.953 206.746 726.24 206.971C725.537 207.186 724.736 207.293 723.838 207.293ZM742.615 184.485V207H738.147V184.485H742.615ZM751.023 191.15L745.428 199.134L742.132 202.811L740.359 199.676L742.967 195.838L745.706 191.15H751.023ZM746.292 207L743.04 199.749L746.248 197.156L751.375 207H746.292ZM756.779 194.534V207H752.312V191.15H756.501L756.779 194.534ZM756.193 198.533L755.109 198.562C755.09 197.361 755.197 196.287 755.432 195.34C755.676 194.393 756.027 193.587 756.486 192.923C756.955 192.249 757.507 191.736 758.142 191.385C758.786 191.033 759.504 190.857 760.295 190.857C760.9 190.857 761.457 190.965 761.965 191.18C762.482 191.395 762.927 191.741 763.298 192.22C763.669 192.688 763.957 193.313 764.162 194.095C764.367 194.876 764.47 195.838 764.47 196.98V207H760.002V196.951C760.002 196.297 759.938 195.794 759.812 195.442C759.685 195.081 759.494 194.832 759.24 194.695C758.996 194.549 758.679 194.476 758.288 194.476C757.927 194.476 757.609 194.583 757.336 194.798C757.072 195.003 756.853 195.286 756.677 195.647C756.501 196.009 756.374 196.438 756.296 196.937C756.228 197.425 756.193 197.957 756.193 198.533ZM766.52 199.705V198.46C766.52 197.21 766.671 196.111 766.974 195.164C767.286 194.217 767.726 193.426 768.292 192.791C768.858 192.156 769.537 191.678 770.328 191.355C771.129 191.023 772.018 190.857 772.994 190.857C773.99 190.857 774.884 191.023 775.675 191.355C776.476 191.678 777.159 192.156 777.726 192.791C778.292 193.426 778.727 194.217 779.029 195.164C779.342 196.111 779.498 197.21 779.498 198.46V199.705C779.498 200.945 779.342 202.039 779.029 202.986C778.727 203.934 778.292 204.729 777.726 205.374C777.159 206.009 776.476 206.487 775.675 206.81C774.884 207.132 774 207.293 773.023 207.293C772.037 207.293 771.144 207.132 770.343 206.81C769.552 206.487 768.868 206.009 768.292 205.374C767.726 204.729 767.286 203.934 766.974 202.986C766.671 202.039 766.52 200.945 766.52 199.705ZM770.987 198.46V199.705C770.987 200.408 771.031 201.014 771.119 201.521C771.217 202.029 771.354 202.444 771.529 202.767C771.705 203.089 771.915 203.323 772.159 203.47C772.413 203.616 772.701 203.689 773.023 203.689C773.395 203.689 773.707 203.616 773.961 203.47C774.225 203.323 774.435 203.089 774.591 202.767C774.747 202.444 774.859 202.029 774.928 201.521C775.006 201.014 775.045 200.408 775.045 199.705V198.46C775.045 197.767 774.996 197.171 774.898 196.673C774.811 196.165 774.679 195.75 774.503 195.428C774.337 195.105 774.122 194.866 773.858 194.71C773.604 194.554 773.316 194.476 772.994 194.476C772.682 194.476 772.398 194.554 772.145 194.71C771.9 194.866 771.69 195.105 771.515 195.428C771.349 195.75 771.217 196.165 771.119 196.673C771.031 197.171 770.987 197.767 770.987 198.46ZM785.503 202.547L788.066 191.15H790.85L790.073 196.321L787.568 207H785.312L785.503 202.547ZM784.946 191.15L786.528 202.488L786.543 207H783.848L780.684 191.15H784.946ZM792.739 202.283L794.321 191.15H798.584L795.449 207H792.754L792.739 202.283ZM791.187 191.15L793.765 202.488L793.984 207H791.714L789.238 196.351L788.491 191.15H791.187ZM804.911 184.5V207H800.443V184.5H804.911ZM814.256 207.293C813.152 207.293 812.171 207.132 811.312 206.81C810.452 206.487 809.729 206.019 809.144 205.403C808.558 204.778 808.113 204.021 807.811 203.133C807.508 202.234 807.356 201.214 807.356 200.071V198.577C807.356 197.298 807.493 196.18 807.767 195.223C808.05 194.256 808.46 193.45 808.997 192.806C809.534 192.161 810.208 191.678 811.019 191.355C811.829 191.023 812.762 190.857 813.816 190.857C814.803 190.857 815.677 191.014 816.438 191.326C817.2 191.639 817.84 192.112 818.357 192.747C818.875 193.372 819.266 194.163 819.529 195.12C819.803 196.067 819.939 197.176 819.939 198.445V200.54H809.129V197.537H815.574V197.098C815.574 196.453 815.511 195.94 815.384 195.56C815.257 195.179 815.062 194.905 814.798 194.739C814.534 194.563 814.197 194.476 813.787 194.476C813.377 194.476 813.04 194.554 812.776 194.71C812.522 194.856 812.327 195.091 812.19 195.413C812.054 195.735 811.956 196.16 811.897 196.688C811.849 197.215 811.824 197.845 811.824 198.577V200.071C811.824 200.784 811.883 201.375 812 201.844C812.117 202.303 812.293 202.669 812.527 202.942C812.762 203.206 813.045 203.396 813.377 203.514C813.719 203.621 814.114 203.675 814.563 203.675C815.218 203.675 815.828 203.562 816.395 203.338C816.971 203.104 817.459 202.762 817.859 202.312L819.661 205.052C819.378 205.403 818.982 205.755 818.475 206.106C817.977 206.458 817.371 206.746 816.658 206.971C815.955 207.186 815.154 207.293 814.256 207.293ZM829.431 203.44V184.5H833.898V207L829.885 207.015L829.431 203.44ZM821.359 199.734V198.489C821.359 197.19 821.467 196.062 821.682 195.105C821.906 194.148 822.233 193.357 822.663 192.732C823.103 192.098 823.645 191.629 824.289 191.326C824.943 191.014 825.69 190.857 826.53 190.857C827.272 190.857 827.912 191.053 828.449 191.443C828.996 191.824 829.46 192.361 829.841 193.055C830.222 193.748 830.529 194.563 830.764 195.501C831.008 196.438 831.184 197.454 831.291 198.548V199.822C831.164 200.848 830.983 201.814 830.749 202.723C830.515 203.621 830.207 204.417 829.826 205.11C829.445 205.794 828.981 206.331 828.435 206.722C827.888 207.103 827.248 207.293 826.516 207.293C825.676 207.293 824.934 207.132 824.289 206.81C823.645 206.487 823.103 206.009 822.663 205.374C822.233 204.739 821.906 203.953 821.682 203.016C821.467 202.068 821.359 200.975 821.359 199.734ZM825.812 198.489V199.734C825.812 200.447 825.842 201.053 825.9 201.551C825.959 202.049 826.062 202.454 826.208 202.767C826.354 203.079 826.55 203.309 826.794 203.455C827.048 203.592 827.365 203.66 827.746 203.66C828.244 203.66 828.649 203.523 828.962 203.25C829.284 202.967 829.519 202.576 829.665 202.078C829.812 201.58 829.88 200.994 829.87 200.32V198.035C829.88 197.469 829.836 196.966 829.738 196.526C829.65 196.077 829.519 195.701 829.343 195.398C829.167 195.096 828.947 194.866 828.684 194.71C828.42 194.554 828.112 194.476 827.761 194.476C827.399 194.476 827.092 194.549 826.838 194.695C826.584 194.842 826.384 195.076 826.237 195.398C826.091 195.711 825.983 196.121 825.915 196.629C825.847 197.137 825.812 197.757 825.812 198.489ZM844.781 191.15H848.824V206.927C848.824 208.382 848.536 209.573 847.96 210.501C847.394 211.438 846.603 212.127 845.587 212.566C844.571 213.016 843.38 213.24 842.013 213.24C841.485 213.24 840.914 213.167 840.299 213.021C839.684 212.874 839.093 212.669 838.526 212.405C837.97 212.151 837.511 211.854 837.149 211.512L838.702 208.538C839.034 208.841 839.483 209.119 840.05 209.373C840.616 209.637 841.212 209.769 841.837 209.769C842.394 209.769 842.857 209.676 843.229 209.49C843.6 209.314 843.878 209.017 844.063 208.597C844.259 208.187 844.356 207.63 844.356 206.927V194.871L844.781 191.15ZM836.007 199.734V198.489C836.007 197.19 836.129 196.062 836.373 195.105C836.617 194.148 836.974 193.357 837.442 192.732C837.921 192.098 838.497 191.629 839.171 191.326C839.845 191.014 840.602 190.857 841.441 190.857C842.33 190.857 843.058 191.053 843.624 191.443C844.2 191.824 844.654 192.361 844.986 193.055C845.318 193.748 845.572 194.563 845.748 195.501C845.934 196.438 846.09 197.454 846.217 198.548V199.822C846.09 200.848 845.914 201.814 845.689 202.723C845.465 203.621 845.167 204.417 844.796 205.11C844.425 205.794 843.966 206.331 843.419 206.722C842.872 207.103 842.203 207.293 841.412 207.293C840.582 207.293 839.83 207.132 839.156 206.81C838.492 206.487 837.926 206.009 837.457 205.374C836.988 204.739 836.627 203.953 836.373 203.016C836.129 202.068 836.007 200.975 836.007 199.734ZM840.475 198.489V199.734C840.475 200.447 840.514 201.053 840.592 201.551C840.68 202.049 840.812 202.454 840.987 202.767C841.173 203.079 841.402 203.309 841.676 203.455C841.959 203.592 842.286 203.66 842.657 203.66C843.224 203.66 843.673 203.523 844.005 203.25C844.337 202.967 844.576 202.576 844.723 202.078C844.879 201.58 844.947 200.994 844.928 200.32V198.035C844.938 197.469 844.898 196.966 844.811 196.526C844.723 196.077 844.586 195.701 844.4 195.398C844.215 195.096 843.98 194.866 843.697 194.71C843.414 194.554 843.077 194.476 842.687 194.476C842.325 194.476 842.003 194.549 841.72 194.695C841.446 194.842 841.217 195.076 841.031 195.398C840.846 195.711 840.704 196.121 840.606 196.629C840.519 197.137 840.475 197.757 840.475 198.489ZM857.979 207.293C856.875 207.293 855.894 207.132 855.034 206.81C854.175 206.487 853.452 206.019 852.866 205.403C852.28 204.778 851.836 204.021 851.533 203.133C851.23 202.234 851.079 201.214 851.079 200.071V198.577C851.079 197.298 851.216 196.18 851.489 195.223C851.772 194.256 852.183 193.45 852.72 192.806C853.257 192.161 853.931 191.678 854.741 191.355C855.552 191.023 856.484 190.857 857.539 190.857C858.525 190.857 859.399 191.014 860.161 191.326C860.923 191.639 861.562 192.112 862.08 192.747C862.598 193.372 862.988 194.163 863.252 195.12C863.525 196.067 863.662 197.176 863.662 198.445V200.54H852.852V197.537H859.297V197.098C859.297 196.453 859.233 195.94 859.106 195.56C858.979 195.179 858.784 194.905 858.521 194.739C858.257 194.563 857.92 194.476 857.51 194.476C857.1 194.476 856.763 194.554 856.499 194.71C856.245 194.856 856.05 195.091 855.913 195.413C855.776 195.735 855.679 196.16 855.62 196.688C855.571 197.215 855.547 197.845 855.547 198.577V200.071C855.547 200.784 855.605 201.375 855.723 201.844C855.84 202.303 856.016 202.669 856.25 202.942C856.484 203.206 856.768 203.396 857.1 203.514C857.441 203.621 857.837 203.675 858.286 203.675C858.94 203.675 859.551 203.562 860.117 203.338C860.693 203.104 861.182 202.762 861.582 202.312L863.384 205.052C863.101 205.403 862.705 205.755 862.197 206.106C861.699 206.458 861.094 206.746 860.381 206.971C859.678 207.186 858.877 207.293 857.979 207.293ZM865.99 204.803C865.99 204.119 866.225 203.553 866.693 203.104C867.162 202.645 867.777 202.415 868.539 202.415C869.32 202.415 869.94 202.645 870.399 203.104C870.868 203.553 871.103 204.119 871.103 204.803C871.103 205.467 870.868 206.028 870.399 206.487C869.94 206.937 869.32 207.161 868.539 207.161C867.777 207.161 867.162 206.937 866.693 206.487C866.225 206.028 865.99 205.467 865.99 204.803Z" fill="white"/>
<path d="M388.114 57.1818V53.2045C390.689 53.2045 392.485 52.6818 393.5 51.6364C394.53 50.5758 395.045 48.8561 395.045 46.4773V40.6818C395.045 38.1212 395.364 36.0227 396 34.3864C396.652 32.75 397.598 31.4773 398.841 30.5682C400.083 29.6591 401.598 29.0303 403.386 28.6818C405.174 28.3182 407.205 28.1364 409.477 28.1364V34.4545C407.689 34.4545 406.318 34.7045 405.364 35.2045C404.409 35.6894 403.75 36.4394 403.386 37.4545C403.038 38.4697 402.864 39.7652 402.864 41.3409V48.7955C402.864 49.9621 402.667 51.053 402.273 52.0682C401.879 53.0833 401.159 53.9773 400.114 54.75C399.068 55.5076 397.576 56.1061 395.636 56.5455C393.712 56.9697 391.205 57.1818 388.114 57.1818ZM409.477 85.8864C407.205 85.8864 405.174 85.7045 403.386 85.3409C401.598 84.9924 400.083 84.3636 398.841 83.4545C397.598 82.5455 396.652 81.2727 396 79.6364C395.364 78 395.045 75.9015 395.045 73.3409V67.5682C395.045 65.1894 394.53 63.4773 393.5 62.4318C392.485 61.3712 390.689 60.8409 388.114 60.8409V56.8636C391.205 56.8636 393.712 57.0833 395.636 57.5227C397.576 57.947 399.068 58.5455 400.114 59.3182C401.159 60.0758 401.879 60.9621 402.273 61.9773C402.667 62.9924 402.864 64.0758 402.864 65.2273V72.6818C402.864 74.2576 403.038 75.553 403.386 76.5682C403.75 77.5833 404.409 78.3409 405.364 78.8409C406.318 79.3409 407.689 79.5909 409.477 79.5909V85.8864ZM388.114 60.8409V53.2045H395.318V60.8409H388.114Z" fill="#00FFE1"/>
<path d="M485.068 56.8636V60.8409C482.492 60.8409 480.689 61.3712 479.659 62.4318C478.644 63.4773 478.136 65.1894 478.136 67.5682V73.3409C478.136 75.9015 477.811 78 477.159 79.6364C476.523 81.2727 475.583 82.5455 474.341 83.4545C473.098 84.3636 471.583 84.9924 469.795 85.3409C468.008 85.7045 465.977 85.8864 463.705 85.8864V79.5909C465.492 79.5909 466.864 79.3409 467.818 78.8409C468.773 78.3409 469.424 77.5833 469.773 76.5682C470.136 75.553 470.318 74.2576 470.318 72.6818V65.2273C470.318 64.0758 470.515 62.9924 470.909 61.9773C471.303 60.9621 472.023 60.0758 473.068 59.3182C474.114 58.5455 475.598 57.947 477.523 57.5227C479.462 57.0833 481.977 56.8636 485.068 56.8636ZM463.705 28.1364C465.977 28.1364 468.008 28.3182 469.795 28.6818C471.583 29.0303 473.098 29.6591 474.341 30.5682C475.583 31.4773 476.523 32.75 477.159 34.3864C477.811 36.0227 478.136 38.1212 478.136 40.6818V46.4773C478.136 48.8561 478.644 50.5758 479.659 51.6364C480.689 52.6818 482.492 53.2045 485.068 53.2045V57.1818C481.977 57.1818 479.462 56.9697 477.523 56.5455C475.598 56.1061 474.114 55.5076 473.068 54.75C472.023 53.9773 471.303 53.0833 470.909 52.0682C470.515 51.053 470.318 49.9621 470.318 48.7955V41.3409C470.318 39.7652 470.136 38.4697 469.773 37.4545C469.424 36.4394 468.773 35.6894 467.818 35.2045C466.864 34.7045 465.492 34.4545 463.705 34.4545V28.1364ZM485.068 53.2045V60.8409H477.864V53.2045H485.068Z" fill="#00FFE1"/>
<path d="M417.812 85H412.244L433.409 26.8182H439.091L460.256 85H454.688L436.449 33.7216H436.051L417.812 85ZM421.818 62.6989H450.682V67.4716H421.818V62.6989Z" fill="#FF0000"/>
</svg>
