<svg width="492" height="96" viewBox="0 0 492 96" fill="none" xmlns="http://www.w3.org/2000/svg">
<g filter="url(#filter0_d_44_613)">
<path d="M123.114 47.8864V43.9091C125.689 43.9091 127.485 43.3864 128.5 42.3409C129.53 41.2803 130.045 39.5606 130.045 37.1818V31.3864C130.045 28.8258 130.364 26.7273 131 25.0909C131.652 23.4545 132.598 22.1818 133.841 21.2727C135.083 20.3636 136.598 19.7348 138.386 19.3864C140.174 19.0227 142.205 18.8409 144.477 18.8409V25.1591C142.689 25.1591 141.318 25.4091 140.364 25.9091C139.409 26.3939 138.75 27.1439 138.386 28.1591C138.038 29.1742 137.864 30.4697 137.864 32.0455V39.5C137.864 40.6667 137.667 41.7576 137.273 42.7727C136.879 43.7879 136.159 44.6818 135.114 45.4545C134.068 46.2121 132.576 46.8106 130.636 47.25C128.712 47.6742 126.205 47.8864 123.114 47.8864ZM144.477 76.5909C142.205 76.5909 140.174 76.4091 138.386 76.0455C136.598 75.697 135.083 75.0682 133.841 74.1591C132.598 73.25 131.652 71.9773 131 70.3409C130.364 68.7045 130.045 66.6061 130.045 64.0455V58.2727C130.045 55.8939 129.53 54.1818 128.5 53.1364C127.485 52.0758 125.689 51.5455 123.114 51.5455V47.5682C126.205 47.5682 128.712 47.7879 130.636 48.2273C132.576 48.6515 134.068 49.25 135.114 50.0227C136.159 50.7803 136.879 51.6667 137.273 52.6818C137.667 53.697 137.864 54.7803 137.864 55.9318V63.3864C137.864 64.9621 138.038 66.2576 138.386 67.2727C138.75 68.2879 139.409 69.0455 140.364 69.5455C141.318 70.0455 142.689 70.2955 144.477 70.2955V76.5909ZM123.114 51.5455V43.9091H130.318V51.5455H123.114ZM487.193 47.5682V51.5455C484.617 51.5455 482.814 52.0758 481.784 53.1364C480.769 54.1818 480.261 55.8939 480.261 58.2727V64.0455C480.261 66.6061 479.936 68.7045 479.284 70.3409C478.648 71.9773 477.708 73.25 476.466 74.1591C475.223 75.0682 473.708 75.697 471.92 76.0455C470.133 76.4091 468.102 76.5909 465.83 76.5909V70.2955C467.617 70.2955 468.989 70.0455 469.943 69.5455C470.898 69.0455 471.549 68.2879 471.898 67.2727C472.261 66.2576 472.443 64.9621 472.443 63.3864V55.9318C472.443 54.7803 472.64 53.697 473.034 52.6818C473.428 51.6667 474.148 50.7803 475.193 50.0227C476.239 49.25 477.723 48.6515 479.648 48.2273C481.587 47.7879 484.102 47.5682 487.193 47.5682ZM465.83 18.8409C468.102 18.8409 470.133 19.0227 471.92 19.3864C473.708 19.7348 475.223 20.3636 476.466 21.2727C477.708 22.1818 478.648 23.4545 479.284 25.0909C479.936 26.7273 480.261 28.8258 480.261 31.3864V37.1818C480.261 39.5606 480.769 41.2803 481.784 42.3409C482.814 43.3864 484.617 43.9091 487.193 43.9091V47.8864C484.102 47.8864 481.587 47.6742 479.648 47.25C477.723 46.8106 476.239 46.2121 475.193 45.4545C474.148 44.6818 473.428 43.7879 473.034 42.7727C472.64 41.7576 472.443 40.6667 472.443 39.5V32.0455C472.443 30.4697 472.261 29.1742 471.898 28.1591C471.549 27.1439 470.898 26.3939 469.943 25.9091C468.989 25.4091 467.617 25.1591 465.83 25.1591V18.8409ZM487.193 43.9091V51.5455H479.989V43.9091H487.193Z" fill="#00FFE1"/>
<path d="M172.631 71H163.631L180.017 24.4545H190.426L206.835 71H197.835L185.403 34H185.04L172.631 71ZM172.926 52.75H197.472V59.5227H172.926V52.75ZM412.756 24.4545L424.869 61.0909H425.347L437.438 24.4545H446.71L430.301 71H419.892L403.506 24.4545H412.756Z" fill="#CC00FF"/>
<path d="M240.193 45.3182L232.693 46.1364C232.481 45.3788 232.11 44.6667 231.58 44C231.064 43.3333 230.367 42.7955 229.489 42.3864C228.61 41.9773 227.534 41.7727 226.261 41.7727C224.549 41.7727 223.11 42.1439 221.943 42.8864C220.792 43.6288 220.223 44.5909 220.239 45.7727C220.223 46.7879 220.595 47.6136 221.352 48.25C222.125 48.8864 223.398 49.4091 225.17 49.8182L231.125 51.0909C234.428 51.803 236.883 52.9318 238.489 54.4773C240.11 56.0227 240.928 58.0455 240.943 60.5455C240.928 62.7424 240.284 64.6818 239.011 66.3636C237.754 68.0303 236.004 69.3333 233.761 70.2727C231.519 71.2121 228.943 71.6818 226.034 71.6818C221.761 71.6818 218.322 70.7879 215.716 69C213.11 67.197 211.557 64.6894 211.057 61.4773L219.08 60.7045C219.443 62.2803 220.216 63.4697 221.398 64.2727C222.58 65.0758 224.117 65.4773 226.011 65.4773C227.966 65.4773 229.534 65.0758 230.716 64.2727C231.913 63.4697 232.511 62.4773 232.511 61.2955C232.511 60.2955 232.125 59.4697 231.352 58.8182C230.595 58.1667 229.413 57.6667 227.807 57.3182L221.852 56.0682C218.504 55.3712 216.027 54.197 214.42 52.5455C212.814 50.8788 212.019 48.7727 212.034 46.2273C212.019 44.0758 212.602 42.2121 213.784 40.6364C214.981 39.0455 216.64 37.8182 218.761 36.9545C220.898 36.0758 223.36 35.6364 226.148 35.6364C230.239 35.6364 233.458 36.5076 235.807 38.25C238.17 39.9924 239.633 42.3485 240.193 45.3182ZM255.227 60.0455L255.205 50.1136H256.523L269.068 36.0909H278.682L263.25 53.2727H261.545L255.227 60.0455ZM247.727 71V24.4545H255.955V71H247.727ZM269.636 71L258.273 55.1136L263.818 49.3182L279.477 71H269.636Z" fill="#00D8BF"/>
<path d="M294.21 71.7045C291.998 71.7045 290.006 71.3106 288.233 70.5227C286.475 69.7197 285.081 68.5379 284.051 66.9773C283.036 65.4167 282.528 63.4924 282.528 61.2045C282.528 59.2348 282.892 57.6061 283.619 56.3182C284.347 55.0303 285.339 54 286.597 53.2273C287.854 52.4545 289.271 51.8712 290.847 51.4773C292.438 51.0682 294.081 50.7727 295.778 50.5909C297.824 50.3788 299.483 50.1894 300.756 50.0227C302.028 49.8409 302.953 49.5682 303.528 49.2045C304.119 48.8258 304.415 48.2424 304.415 47.4545V47.3182C304.415 45.6061 303.907 44.2803 302.892 43.3409C301.877 42.4015 300.415 41.9318 298.506 41.9318C296.491 41.9318 294.892 42.3712 293.71 43.25C292.544 44.1288 291.756 45.1667 291.347 46.3636L283.665 45.2727C284.271 43.1515 285.271 41.3788 286.665 39.9545C288.059 38.5151 289.763 37.4394 291.778 36.7273C293.794 36 296.021 35.6364 298.46 35.6364C300.142 35.6364 301.816 35.8333 303.483 36.2273C305.15 36.6212 306.672 37.2727 308.051 38.1818C309.43 39.0758 310.536 40.2955 311.369 41.8409C312.218 43.3864 312.642 45.3182 312.642 47.6364V71H304.733V66.2045H304.46C303.96 67.1742 303.256 68.0833 302.347 68.9318C301.453 69.7652 300.324 70.4394 298.96 70.9545C297.612 71.4545 296.028 71.7045 294.21 71.7045ZM296.347 65.6591C297.998 65.6591 299.43 65.3333 300.642 64.6818C301.854 64.0152 302.786 63.1364 303.438 62.0455C304.104 60.9545 304.438 59.7652 304.438 58.4773V54.3636C304.18 54.5758 303.741 54.7727 303.119 54.9545C302.513 55.1364 301.831 55.2955 301.074 55.4318C300.316 55.5682 299.566 55.6894 298.824 55.7955C298.081 55.9015 297.438 55.9924 296.892 56.0682C295.665 56.2348 294.566 56.5076 293.597 56.8864C292.627 57.2652 291.862 57.7955 291.301 58.4773C290.741 59.1439 290.46 60.0076 290.46 61.0682C290.46 62.5833 291.013 63.7273 292.119 64.5C293.225 65.2727 294.634 65.6591 296.347 65.6591ZM367.653 71V24.4545H397.926V31.5227H376.085V44.1591H396.358V51.2273H376.085V63.9318H398.108V71H367.653Z" fill="#00FF09"/>
<path d="M337.051 71H321.278V24.4545H337.369C341.991 24.4545 345.96 25.3864 349.278 27.25C352.612 29.0985 355.172 31.7576 356.96 35.2273C358.748 38.697 359.642 42.8485 359.642 47.6818C359.642 52.5303 358.741 56.697 356.938 60.1818C355.15 63.6667 352.566 66.3409 349.188 68.2045C345.824 70.0682 341.778 71 337.051 71ZM329.71 63.7045H336.642C339.884 63.7045 342.589 63.1136 344.756 61.9318C346.922 60.7348 348.551 58.9545 349.642 56.5909C350.733 54.2121 351.278 51.2424 351.278 47.6818C351.278 44.1212 350.733 41.1667 349.642 38.8182C348.551 36.4545 346.938 34.6894 344.801 33.5227C342.68 32.3409 340.044 31.75 336.892 31.75H329.71V63.7045Z" fill="#FF070C" fill-opacity="0.68"/>
</g>
<path d="M2.11364 49.1818V45.2045C4.68939 45.2045 6.48485 44.6818 7.5 43.6364C8.5303 42.5758 9.04545 40.8561 9.04545 38.4773V32.6818C9.04545 30.1212 9.36364 28.0227 10 26.3864C10.6515 24.75 11.5985 23.4773 12.8409 22.5682C14.0833 21.6591 15.5985 21.0303 17.3864 20.6818C19.1742 20.3182 21.2045 20.1364 23.4773 20.1364V26.4545C21.6894 26.4545 20.3182 26.7045 19.3636 27.2045C18.4091 27.6894 17.75 28.4394 17.3864 29.4545C17.0379 30.4697 16.8636 31.7652 16.8636 33.3409V40.7955C16.8636 41.9621 16.6667 43.053 16.2727 44.0682C15.8788 45.0833 15.1591 45.9773 14.1136 46.75C13.0682 47.5076 11.5758 48.1061 9.63636 48.5455C7.71212 48.9697 5.20455 49.1818 2.11364 49.1818ZM23.4773 77.8864C21.2045 77.8864 19.1742 77.7045 17.3864 77.3409C15.5985 76.9924 14.0833 76.3636 12.8409 75.4545C11.5985 74.5455 10.6515 73.2727 10 71.6364C9.36364 70 9.04545 67.9015 9.04545 65.3409V59.5682C9.04545 57.1894 8.5303 55.4773 7.5 54.4318C6.48485 53.3712 4.68939 52.8409 2.11364 52.8409V48.8636C5.20455 48.8636 7.71212 49.0833 9.63636 49.5227C11.5758 49.947 13.0682 50.5455 14.1136 51.3182C15.1591 52.0758 15.8788 52.9621 16.2727 53.9773C16.6667 54.9924 16.8636 56.0758 16.8636 57.2273V64.6818C16.8636 66.2576 17.0379 67.553 17.3864 68.5682C17.75 69.5833 18.4091 70.3409 19.3636 70.8409C20.3182 71.3409 21.6894 71.5909 23.4773 71.5909V77.8864ZM2.11364 52.8409V45.2045H9.31818V52.8409H2.11364Z" fill="#00FFE1"/>
<path d="M99.0682 48.8636V52.8409C96.4924 52.8409 94.6894 53.3712 93.6591 54.4318C92.6439 55.4773 92.1364 57.1894 92.1364 59.5682V65.3409C92.1364 67.9015 91.8106 70 91.1591 71.6364C90.5227 73.2727 89.5833 74.5455 88.3409 75.4545C87.0985 76.3636 85.5833 76.9924 83.7955 77.3409C82.0076 77.7045 79.9773 77.8864 77.7045 77.8864V71.5909C79.4924 71.5909 80.8636 71.3409 81.8182 70.8409C82.7727 70.3409 83.4242 69.5833 83.7727 68.5682C84.1364 67.553 84.3182 66.2576 84.3182 64.6818V57.2273C84.3182 56.0758 84.5152 54.9924 84.9091 53.9773C85.303 52.9621 86.0227 52.0758 87.0682 51.3182C88.1136 50.5455 89.5985 49.947 91.5227 49.5227C93.4621 49.0833 95.9773 48.8636 99.0682 48.8636ZM77.7045 20.1364C79.9773 20.1364 82.0076 20.3182 83.7955 20.6818C85.5833 21.0303 87.0985 21.6591 88.3409 22.5682C89.5833 23.4773 90.5227 24.75 91.1591 26.3864C91.8106 28.0227 92.1364 30.1212 92.1364 32.6818V38.4773C92.1364 40.8561 92.6439 42.5758 93.6591 43.6364C94.6894 44.6818 96.4924 45.2045 99.0682 45.2045V49.1818C95.9773 49.1818 93.4621 48.9697 91.5227 48.5455C89.5985 48.1061 88.1136 47.5076 87.0682 46.75C86.0227 45.9773 85.303 45.0833 84.9091 44.0682C84.5152 43.053 84.3182 41.9621 84.3182 40.7955V33.3409C84.3182 31.7652 84.1364 30.4697 83.7727 29.4545C83.4242 28.4394 82.7727 27.6894 81.8182 27.2045C80.8636 26.7045 79.4924 26.4545 77.7045 26.4545V20.1364ZM99.0682 45.2045V52.8409H91.8636V45.2045H99.0682Z" fill="#00FFE1"/>
<path d="M31.8125 77H26.2443L47.4091 18.8182H53.0909L74.2557 77H68.6875L50.4489 25.7216H50.0511L31.8125 77ZM35.8182 54.6989H64.6818V59.4716H35.8182V54.6989Z" fill="#FF0000"/>
<defs>
<filter id="filter0_d_44_613" x="119.114" y="18.8409" width="372.08" height="65.75" filterUnits="userSpaceOnUse" color-interpolation-filters="sRGB">
<feFlood flood-opacity="0" result="BackgroundImageFix"/>
<feColorMatrix in="SourceAlpha" type="matrix" values="0 0 0 0 0 0 0 0 0 0 0 0 0 0 0 0 0 0 127 0" result="hardAlpha"/>
<feOffset dy="4"/>
<feGaussianBlur stdDeviation="2"/>
<feComposite in2="hardAlpha" operator="out"/>
<feColorMatrix type="matrix" values="0 0 0 0 0 0 0 0 0 0 0 0 0 0 0 0 0 0 0.25 0"/>
<feBlend mode="normal" in2="BackgroundImageFix" result="effect1_dropShadow_44_613"/>
<feBlend mode="normal" in="SourceGraphic" in2="effect1_dropShadow_44_613" result="shape"/>
</filter>
</defs>
</svg>
