<svg width="104" height="132" viewBox="0 0 104 132" fill="none" xmlns="http://www.w3.org/2000/svg">
<g filter="url(#filter0_d_28_572)">
<mask id="path-1-outside-1_28_572" maskUnits="userSpaceOnUse" x="76" y="6" width="25" height="60" fill="black">
<rect fill="white" x="76" y="6" width="25" height="60"/>
<path d="M99.0682 35.8636V39.8409C96.4924 39.8409 94.6894 40.3712 93.6591 41.4318C92.6439 42.4773 92.1364 44.1894 92.1364 46.5682V52.3409C92.1364 54.9015 91.8106 57 91.1591 58.6364C90.5227 60.2727 89.5833 61.5455 88.3409 62.4545C87.0985 63.3636 85.5833 63.9924 83.7955 64.3409C82.0076 64.7045 79.9773 64.8864 77.7045 64.8864V58.5909C79.4924 58.5909 80.8636 58.3409 81.8182 57.8409C82.7727 57.3409 83.4242 56.5833 83.7727 55.5682C84.1364 54.553 84.3182 53.2576 84.3182 51.6818V44.2273C84.3182 43.0758 84.5152 41.9924 84.9091 40.9773C85.303 39.9621 86.0227 39.0758 87.0682 38.3182C88.1136 37.5455 89.5985 36.947 91.5227 36.5227C93.4621 36.0833 95.9773 35.8636 99.0682 35.8636ZM77.7045 7.13636C79.9773 7.13636 82.0076 7.31818 83.7955 7.68182C85.5833 8.0303 87.0985 8.65909 88.3409 9.56818C89.5833 10.4773 90.5227 11.75 91.1591 13.3864C91.8106 15.0227 92.1364 17.1212 92.1364 19.6818V25.4773C92.1364 27.8561 92.6439 29.5758 93.6591 30.6364C94.6894 31.6818 96.4924 32.2045 99.0682 32.2045V36.1818C95.9773 36.1818 93.4621 35.9697 91.5227 35.5455C89.5985 35.1061 88.1136 34.5076 87.0682 33.75C86.0227 32.9773 85.303 32.0833 84.9091 31.0682C84.5152 30.053 84.3182 28.9621 84.3182 27.7955V20.3409C84.3182 18.7652 84.1364 17.4697 83.7727 16.4545C83.4242 15.4394 82.7727 14.6894 81.8182 14.2045C80.8636 13.7045 79.4924 13.4545 77.7045 13.4545V7.13636ZM99.0682 32.2045V39.8409H91.8636V32.2045H99.0682Z"/>
</mask>
<path d="M99.0682 35.8636V39.8409C96.4924 39.8409 94.6894 40.3712 93.6591 41.4318C92.6439 42.4773 92.1364 44.1894 92.1364 46.5682V52.3409C92.1364 54.9015 91.8106 57 91.1591 58.6364C90.5227 60.2727 89.5833 61.5455 88.3409 62.4545C87.0985 63.3636 85.5833 63.9924 83.7955 64.3409C82.0076 64.7045 79.9773 64.8864 77.7045 64.8864V58.5909C79.4924 58.5909 80.8636 58.3409 81.8182 57.8409C82.7727 57.3409 83.4242 56.5833 83.7727 55.5682C84.1364 54.553 84.3182 53.2576 84.3182 51.6818V44.2273C84.3182 43.0758 84.5152 41.9924 84.9091 40.9773C85.303 39.9621 86.0227 39.0758 87.0682 38.3182C88.1136 37.5455 89.5985 36.947 91.5227 36.5227C93.4621 36.0833 95.9773 35.8636 99.0682 35.8636ZM77.7045 7.13636C79.9773 7.13636 82.0076 7.31818 83.7955 7.68182C85.5833 8.0303 87.0985 8.65909 88.3409 9.56818C89.5833 10.4773 90.5227 11.75 91.1591 13.3864C91.8106 15.0227 92.1364 17.1212 92.1364 19.6818V25.4773C92.1364 27.8561 92.6439 29.5758 93.6591 30.6364C94.6894 31.6818 96.4924 32.2045 99.0682 32.2045V36.1818C95.9773 36.1818 93.4621 35.9697 91.5227 35.5455C89.5985 35.1061 88.1136 34.5076 87.0682 33.75C86.0227 32.9773 85.303 32.0833 84.9091 31.0682C84.5152 30.053 84.3182 28.9621 84.3182 27.7955V20.3409C84.3182 18.7652 84.1364 17.4697 83.7727 16.4545C83.4242 15.4394 82.7727 14.6894 81.8182 14.2045C80.8636 13.7045 79.4924 13.4545 77.7045 13.4545V7.13636ZM99.0682 32.2045V39.8409H91.8636V32.2045H99.0682Z" fill="#00D8BF"/>
<path d="M99.0682 35.8636H100.068V34.8636H99.0682V35.8636ZM99.0682 39.8409V40.8409H100.068V39.8409H99.0682ZM93.6591 41.4318L92.9418 40.735L92.9417 40.7352L93.6591 41.4318ZM91.1591 58.6364L90.23 58.2664L90.2271 58.2739L91.1591 58.6364ZM88.3409 62.4545L87.7504 61.6475L87.7504 61.6475L88.3409 62.4545ZM83.7955 64.3409L83.6041 63.3593L83.5961 63.361L83.7955 64.3409ZM77.7045 64.8864H76.7045V65.8864H77.7045V64.8864ZM77.7045 58.5909V57.5909H76.7045V58.5909H77.7045ZM83.7727 55.5682L82.8312 55.2309L82.8269 55.2435L83.7727 55.5682ZM84.9091 40.9773L83.9768 40.6155L83.9768 40.6155L84.9091 40.9773ZM87.0682 38.3182L87.655 39.128L87.6626 39.1224L87.0682 38.3182ZM91.5227 36.5227L91.738 37.4993L91.7437 37.498L91.5227 36.5227ZM77.7045 7.13636V6.13636H76.7045V7.13636H77.7045ZM83.7955 7.68182L83.5961 8.66179L83.6041 8.66334L83.7955 7.68182ZM88.3409 9.56818L87.7504 10.3752L87.7504 10.3752L88.3409 9.56818ZM91.1591 13.3864L90.2271 13.7488L90.23 13.7563L91.1591 13.3864ZM93.6591 30.6364L92.9367 31.3278L92.9417 31.3331L92.9468 31.3383L93.6591 30.6364ZM99.0682 32.2045H100.068V31.2045H99.0682V32.2045ZM99.0682 36.1818V37.1818H100.068V36.1818H99.0682ZM91.5227 35.5455L91.3001 36.5204L91.309 36.5224L91.5227 35.5455ZM87.0682 33.75L86.4738 34.5542L86.4814 34.5597L87.0682 33.75ZM84.9091 31.0682L83.9768 31.43L83.9768 31.43L84.9091 31.0682ZM83.7727 16.4545L82.8268 16.7793L82.8313 16.7918L83.7727 16.4545ZM81.8182 14.2045L81.3541 15.0904L81.3653 15.0961L81.8182 14.2045ZM77.7045 13.4545H76.7045V14.4545H77.7045V13.4545ZM99.0682 32.2045H100.068V31.2045H99.0682V32.2045ZM99.0682 39.8409V40.8409H100.068V39.8409H99.0682ZM91.8636 39.8409H90.8636V40.8409H91.8636V39.8409ZM91.8636 32.2045V31.2045H90.8636V32.2045H91.8636ZM98.0682 35.8636V39.8409H100.068V35.8636H98.0682ZM99.0682 38.8409C96.4089 38.8409 94.2596 39.3785 92.9418 40.735L94.3764 42.1286C95.1192 41.3639 96.576 40.8409 99.0682 40.8409V38.8409ZM92.9417 40.7352C91.6597 42.0554 91.1364 44.0855 91.1364 46.5682H93.1364C93.1364 44.2932 93.6281 42.8992 94.3765 42.1285L92.9417 40.7352ZM91.1364 46.5682V52.3409H93.1364V46.5682H91.1364ZM91.1364 52.3409C91.1364 54.8274 90.8185 56.7884 90.23 58.2665L92.0882 59.0063C92.8027 57.2116 93.1364 54.9756 93.1364 52.3409H91.1364ZM90.2271 58.2739C89.6499 59.7582 88.8182 60.8662 87.7504 61.6475L88.9314 63.2616C90.3485 62.2247 91.3956 60.7873 92.0911 58.9988L90.2271 58.2739ZM87.7504 61.6475C86.6464 62.4553 85.2739 63.0339 83.6041 63.3594L83.9868 65.3224C85.8928 64.9509 87.5506 64.2719 88.9314 63.2616L87.7504 61.6475ZM83.5961 63.361C81.8875 63.7085 79.9259 63.8864 77.7045 63.8864V65.8864C80.0286 65.8864 82.1276 65.7006 83.9948 65.3208L83.5961 63.361ZM78.7045 64.8864V58.5909H76.7045V64.8864H78.7045ZM77.7045 59.5909C79.5601 59.5909 81.1196 59.3357 82.2822 58.7267L81.3542 56.9551C80.6077 57.3461 79.4247 57.5909 77.7045 57.5909V59.5909ZM82.2822 58.7267C83.4621 58.1087 84.2867 57.1508 84.7185 55.8929L82.8269 55.2435C82.5618 56.0158 82.0833 56.5732 81.3542 56.9551L82.2822 58.7267ZM84.7142 55.9054C85.13 54.7445 85.3182 53.3244 85.3182 51.6818H83.3182C83.3182 53.1908 83.1427 54.3616 82.8313 55.231L84.7142 55.9054ZM85.3182 51.6818V44.2273H83.3182V51.6818H85.3182ZM85.3182 44.2273C85.3182 43.1923 85.4947 42.2323 85.8414 41.339L83.9768 40.6155C83.5356 41.7525 83.3182 42.9592 83.3182 44.2273H85.3182ZM85.8414 41.339C86.1536 40.5344 86.736 39.7938 87.655 39.1279L86.4814 37.5084C85.3095 38.3577 84.4525 39.3898 83.9768 40.6155L85.8414 41.339ZM87.6626 39.1224C88.5523 38.4648 89.8869 37.9074 91.738 37.4993L91.3074 35.5462C89.3101 35.9865 87.675 36.6261 86.4738 37.514L87.6626 39.1224ZM91.7437 37.498C93.5823 37.0815 96.0155 36.8636 99.0682 36.8636V34.8636C95.939 34.8636 93.342 35.0852 91.3018 35.5474L91.7437 37.498ZM77.7045 8.13636C79.9259 8.13636 81.8875 8.31424 83.5961 8.66175L83.9948 6.70188C82.1276 6.32212 80.0286 6.13636 77.7045 6.13636V8.13636ZM83.6041 8.66334C85.2739 8.98881 86.6464 9.56739 87.7504 10.3752L88.9314 8.76115C87.5506 7.75079 85.8928 7.07179 83.9868 6.70029L83.6041 8.66334ZM87.7504 10.3752C88.8182 11.1565 89.6499 12.2646 90.2271 13.7488L92.0911 13.0239C91.3956 11.2354 90.3485 9.79804 88.9314 8.76115L87.7504 10.3752ZM90.23 13.7563C90.8185 15.2344 91.1364 17.1953 91.1364 19.6818H93.1364C93.1364 17.0471 92.8027 14.8111 92.0882 13.0165L90.23 13.7563ZM91.1364 19.6818V25.4773H93.1364V19.6818H91.1364ZM91.1364 25.4773C91.1364 27.9617 91.6605 29.9945 92.9367 31.3278L94.3815 29.9449C93.6274 29.157 93.1364 27.7504 93.1364 25.4773H91.1364ZM92.9468 31.3383C94.2649 32.6757 96.4118 33.2045 99.0682 33.2045V31.2045C96.573 31.2045 95.1139 30.6879 94.3713 29.9344L92.9468 31.3383ZM98.0682 32.2045V36.1818H100.068V32.2045H98.0682ZM99.0682 35.1818C96.0141 35.1818 93.5781 34.9714 91.7364 34.5686L91.309 36.5224C93.3461 36.968 95.9404 37.1818 99.0682 37.1818V35.1818ZM91.7453 34.5705C89.8899 34.1469 88.5493 33.5883 87.655 32.9403L86.4814 34.5597C87.678 35.4268 89.3071 36.0653 91.3001 36.5204L91.7453 34.5705ZM87.6626 32.9458C86.7395 32.2636 86.1545 31.5134 85.8414 30.7064L83.9768 31.43C84.4515 32.6533 85.306 33.691 86.4738 34.5542L87.6626 32.9458ZM85.8414 30.7064C85.4953 29.8146 85.3182 28.8473 85.3182 27.7955H83.3182C83.3182 29.077 83.535 30.2914 83.9768 31.43L85.8414 30.7064ZM85.3182 27.7955V20.3409H83.3182V27.7955H85.3182ZM85.3182 20.3409C85.3182 18.6984 85.13 17.2782 84.7142 16.1173L82.8313 16.7918C83.1427 17.6611 83.3182 18.8319 83.3182 20.3409H85.3182ZM84.7185 16.1299C84.2859 14.8695 83.458 13.9159 82.271 13.313L81.3653 15.0961C82.0875 15.4629 82.5626 16.0092 82.8269 16.7792L84.7185 16.1299ZM82.2822 13.3187C81.1196 12.7097 79.5601 12.4545 77.7045 12.4545V14.4545C79.4247 14.4545 80.6077 14.6994 81.3542 15.0904L82.2822 13.3187ZM78.7045 13.4545V7.13636H76.7045V13.4545H78.7045ZM98.0682 32.2045V39.8409H100.068V32.2045H98.0682ZM99.0682 38.8409H91.8636V40.8409H99.0682V38.8409ZM92.8636 39.8409V32.2045H90.8636V39.8409H92.8636ZM91.8636 33.2045H99.0682V31.2045H91.8636V33.2045Z" fill="black" mask="url(#path-1-outside-1_28_572)"/>
</g>
<g filter="url(#filter1_d_28_572)">
<mask id="path-3-outside-2_28_572" maskUnits="userSpaceOnUse" x="3" y="65" width="24" height="60" fill="black">
<rect fill="white" x="3" y="65" width="24" height="60"/>
<path d="M4.11364 95.1818V91.2045C6.68939 91.2045 8.48485 90.6818 9.5 89.6364C10.5303 88.5758 11.0455 86.8561 11.0455 84.4773V78.6818C11.0455 76.1212 11.3636 74.0227 12 72.3864C12.6515 70.75 13.5985 69.4773 14.8409 68.5682C16.0833 67.6591 17.5985 67.0303 19.3864 66.6818C21.1742 66.3182 23.2045 66.1364 25.4773 66.1364V72.4545C23.6894 72.4545 22.3182 72.7045 21.3636 73.2045C20.4091 73.6894 19.75 74.4394 19.3864 75.4545C19.0379 76.4697 18.8636 77.7652 18.8636 79.3409V86.7955C18.8636 87.9621 18.6667 89.053 18.2727 90.0682C17.8788 91.0833 17.1591 91.9773 16.1136 92.75C15.0682 93.5076 13.5758 94.1061 11.6364 94.5455C9.71212 94.9697 7.20455 95.1818 4.11364 95.1818ZM25.4773 123.886C23.2045 123.886 21.1742 123.705 19.3864 123.341C17.5985 122.992 16.0833 122.364 14.8409 121.455C13.5985 120.545 12.6515 119.273 12 117.636C11.3636 116 11.0455 113.902 11.0455 111.341V105.568C11.0455 103.189 10.5303 101.477 9.5 100.432C8.48485 99.3712 6.68939 98.8409 4.11364 98.8409V94.8636C7.20455 94.8636 9.71212 95.0833 11.6364 95.5227C13.5758 95.947 15.0682 96.5455 16.1136 97.3182C17.1591 98.0758 17.8788 98.9621 18.2727 99.9773C18.6667 100.992 18.8636 102.076 18.8636 103.227V110.682C18.8636 112.258 19.0379 113.553 19.3864 114.568C19.75 115.583 20.4091 116.341 21.3636 116.841C22.3182 117.341 23.6894 117.591 25.4773 117.591V123.886ZM4.11364 98.8409V91.2045H11.3182V98.8409H4.11364Z"/>
</mask>
<path d="M4.11364 95.1818V91.2045C6.68939 91.2045 8.48485 90.6818 9.5 89.6364C10.5303 88.5758 11.0455 86.8561 11.0455 84.4773V78.6818C11.0455 76.1212 11.3636 74.0227 12 72.3864C12.6515 70.75 13.5985 69.4773 14.8409 68.5682C16.0833 67.6591 17.5985 67.0303 19.3864 66.6818C21.1742 66.3182 23.2045 66.1364 25.4773 66.1364V72.4545C23.6894 72.4545 22.3182 72.7045 21.3636 73.2045C20.4091 73.6894 19.75 74.4394 19.3864 75.4545C19.0379 76.4697 18.8636 77.7652 18.8636 79.3409V86.7955C18.8636 87.9621 18.6667 89.053 18.2727 90.0682C17.8788 91.0833 17.1591 91.9773 16.1136 92.75C15.0682 93.5076 13.5758 94.1061 11.6364 94.5455C9.71212 94.9697 7.20455 95.1818 4.11364 95.1818ZM25.4773 123.886C23.2045 123.886 21.1742 123.705 19.3864 123.341C17.5985 122.992 16.0833 122.364 14.8409 121.455C13.5985 120.545 12.6515 119.273 12 117.636C11.3636 116 11.0455 113.902 11.0455 111.341V105.568C11.0455 103.189 10.5303 101.477 9.5 100.432C8.48485 99.3712 6.68939 98.8409 4.11364 98.8409V94.8636C7.20455 94.8636 9.71212 95.0833 11.6364 95.5227C13.5758 95.947 15.0682 96.5455 16.1136 97.3182C17.1591 98.0758 17.8788 98.9621 18.2727 99.9773C18.6667 100.992 18.8636 102.076 18.8636 103.227V110.682C18.8636 112.258 19.0379 113.553 19.3864 114.568C19.75 115.583 20.4091 116.341 21.3636 116.841C22.3182 117.341 23.6894 117.591 25.4773 117.591V123.886ZM4.11364 98.8409V91.2045H11.3182V98.8409H4.11364Z" fill="#00FFE1"/>
<path d="M4.11364 95.1818H3.11364V96.1818H4.11364V95.1818ZM4.11364 91.2045V90.2045H3.11364V91.2045H4.11364ZM9.5 89.6364L8.78272 88.9396L8.78257 88.9397L9.5 89.6364ZM12 72.3864L11.0709 72.0164L11.068 72.0239L12 72.3864ZM14.8409 68.5682L14.2504 67.7611L14.2504 67.7611L14.8409 68.5682ZM19.3864 66.6818L19.5777 67.6634L19.5857 67.6618L19.3864 66.6818ZM25.4773 66.1364H26.4773V65.1364H25.4773V66.1364ZM25.4773 72.4545V73.4545H26.4773V72.4545H25.4773ZM21.3636 73.2045L21.8165 74.0962L21.8276 74.0904L21.3636 73.2045ZM19.3864 75.4545L18.4449 75.1173L18.4405 75.1299L19.3864 75.4545ZM18.2727 90.0682L19.205 90.43L19.205 90.43L18.2727 90.0682ZM16.1136 92.75L16.7004 93.5598L16.708 93.5542L16.1136 92.75ZM11.6364 94.5455L11.8517 95.522L11.8573 95.5207L11.6364 94.5455ZM25.4773 123.886V124.886H26.4773V123.886H25.4773ZM19.3864 123.341L19.5857 122.361L19.5777 122.359L19.3864 123.341ZM14.8409 121.455L14.2504 122.262L14.2504 122.262L14.8409 121.455ZM12 117.636L11.068 117.999L11.0709 118.006L12 117.636ZM9.5 100.432L8.77758 101.123L8.78263 101.129L8.78775 101.134L9.5 100.432ZM4.11364 98.8409H3.11364V99.8409H4.11364V98.8409ZM4.11364 94.8636V93.8636H3.11364V94.8636H4.11364ZM11.6364 95.5227L11.4137 96.4977L11.4227 96.4996L11.6364 95.5227ZM16.1136 97.3182L15.5192 98.1224L15.5269 98.1279L16.1136 97.3182ZM18.2727 99.9773L19.205 99.6155L19.205 99.6155L18.2727 99.9773ZM19.3864 114.568L18.4405 114.893L18.4449 114.905L19.3864 114.568ZM21.3636 116.841L20.8996 117.727L20.8996 117.727L21.3636 116.841ZM25.4773 117.591H26.4773V116.591H25.4773V117.591ZM4.11364 98.8409H3.11364V99.8409H4.11364V98.8409ZM4.11364 91.2045V90.2045H3.11364V91.2045H4.11364ZM11.3182 91.2045H12.3182V90.2045H11.3182V91.2045ZM11.3182 98.8409V99.8409H12.3182V98.8409H11.3182ZM5.11364 95.1818V91.2045H3.11364V95.1818H5.11364ZM4.11364 92.2045C6.76779 92.2045 8.91273 91.6766 10.2174 90.333L8.78257 88.9397C8.05696 89.687 6.611 90.2045 4.11364 90.2045V92.2045ZM10.2173 90.3331C11.5124 88.9999 12.0455 86.9648 12.0455 84.4773H10.0455C10.0455 86.7473 9.54822 88.1516 8.78272 88.9396L10.2173 90.3331ZM12.0455 84.4773V78.6818H10.0455V84.4773H12.0455ZM12.0455 78.6818C12.0455 76.1933 12.3562 74.2295 12.932 72.7488L11.068 72.0239C10.3711 73.8159 10.0455 76.0491 10.0455 78.6818H12.0455ZM12.9291 72.7563C13.5213 71.2688 14.3616 70.158 15.4314 69.3752L14.2504 67.7611C12.8354 68.7965 11.7817 70.2312 11.0709 72.0165L12.9291 72.7563ZM15.4314 69.3752C16.5354 68.5674 17.9079 67.9888 19.5777 67.6633L19.195 65.7003C17.2891 66.0718 15.6312 66.7508 14.2504 67.7611L15.4314 69.3752ZM19.5857 67.6618C21.2943 67.3142 23.2559 67.1364 25.4773 67.1364V65.1364C23.1532 65.1364 21.0542 65.3221 19.1871 65.7019L19.5857 67.6618ZM24.4773 66.1364V72.4545H26.4773V66.1364H24.4773ZM25.4773 71.4545C23.6217 71.4545 22.0622 71.7097 20.8996 72.3187L21.8276 74.0904C22.5741 73.6994 23.7571 73.4545 25.4773 73.4545V71.4545ZM20.9108 72.313C19.7268 72.9144 18.894 73.8637 18.4449 75.1173L20.3278 75.7918C20.606 75.0151 21.0914 74.4644 21.8165 74.0961L20.9108 72.313ZM18.4405 75.1299C18.0436 76.2861 17.8636 77.7015 17.8636 79.3409H19.8636C19.8636 77.8288 20.0321 76.6533 20.3322 75.7792L18.4405 75.1299ZM17.8636 79.3409V86.7955H19.8636V79.3409H17.8636ZM17.8636 86.7955C17.8636 87.8473 17.6865 88.8146 17.3405 89.7064L19.205 90.43C19.6468 89.2914 19.8636 88.077 19.8636 86.7955H17.8636ZM17.3405 89.7064C17.0273 90.5134 16.4423 91.2636 15.5192 91.9458L16.708 93.5542C17.8759 92.691 18.7303 91.6533 19.205 90.43L17.3405 89.7064ZM15.5269 91.9403C14.6338 92.5874 13.2869 93.1462 11.4154 93.5702L11.8573 95.5207C13.8647 95.066 15.5026 94.4277 16.7004 93.5597L15.5269 91.9403ZM11.4211 93.5689C9.59561 93.9714 7.16805 94.1818 4.11364 94.1818V96.1818C7.24104 96.1818 9.82864 95.968 11.8517 95.522L11.4211 93.5689ZM25.4773 122.886C23.2559 122.886 21.2943 122.708 19.5857 122.361L19.1871 124.321C21.0542 124.701 23.1532 124.886 25.4773 124.886V122.886ZM19.5777 122.359C17.9079 122.034 16.5354 121.455 15.4314 120.648L14.2504 122.262C15.6312 123.272 17.2891 123.951 19.195 124.322L19.5777 122.359ZM15.4314 120.648C14.3616 119.865 13.5213 118.754 12.9291 117.266L11.0709 118.006C11.7817 119.792 12.8354 121.226 14.2504 122.262L15.4314 120.648ZM12.932 117.274C12.3562 115.793 12.0455 113.829 12.0455 111.341H10.0455C10.0455 113.974 10.3711 116.207 11.068 117.999L12.932 117.274ZM12.0455 111.341V105.568H10.0455V111.341H12.0455ZM12.0455 105.568C12.0455 103.082 11.5131 101.05 10.2122 99.7299L8.78775 101.134C9.54747 101.905 10.0455 103.296 10.0455 105.568H12.0455ZM10.2224 99.7404C8.91805 98.3776 6.77076 97.8409 4.11364 97.8409V99.8409C6.60803 99.8409 8.05165 100.365 8.77758 101.123L10.2224 99.7404ZM5.11364 98.8409V94.8636H3.11364V98.8409H5.11364ZM4.11364 95.8636C7.16666 95.8636 9.59147 96.0815 11.4137 96.4976L11.859 94.5478C9.83278 94.0851 7.24243 93.8636 4.11364 93.8636V95.8636ZM11.4227 96.4996C13.2899 96.9081 14.6308 97.4657 15.5192 98.1224L16.708 96.514C15.5055 95.6252 13.8616 94.9859 11.8501 94.5458L11.4227 96.4996ZM15.5269 98.1279C16.4458 98.7938 17.0282 99.5344 17.3405 100.339L19.205 99.6155C18.7294 98.3898 17.8724 97.3577 16.7004 96.5084L15.5269 98.1279ZM17.3405 100.339C17.6871 101.232 17.8636 102.192 17.8636 103.227H19.8636C19.8636 101.959 19.6462 100.753 19.205 99.6155L17.3405 100.339ZM17.8636 103.227V110.682H19.8636V103.227H17.8636ZM17.8636 110.682C17.8636 112.321 18.0436 113.737 18.4405 114.893L20.3322 114.243C20.0321 113.369 19.8636 112.194 19.8636 110.682H17.8636ZM18.4449 114.905C18.8932 116.157 19.7226 117.11 20.8996 117.727L21.8276 115.955C21.0956 115.572 20.6068 115.01 20.3278 114.231L18.4449 114.905ZM20.8996 117.727C22.0622 118.336 23.6217 118.591 25.4773 118.591V116.591C23.7571 116.591 22.5741 116.346 21.8276 115.955L20.8996 117.727ZM24.4773 117.591V123.886H26.4773V117.591H24.4773ZM5.11364 98.8409V91.2045H3.11364V98.8409H5.11364ZM4.11364 92.2045H11.3182V90.2045H4.11364V92.2045ZM10.3182 91.2045V98.8409H12.3182V91.2045H10.3182ZM11.3182 97.8409H4.11364V99.8409H11.3182V97.8409Z" fill="black" mask="url(#path-3-outside-2_28_572)"/>
</g>
<defs>
<filter id="filter0_d_28_572" x="73.7045" y="7.13636" width="29.3636" height="65.75" filterUnits="userSpaceOnUse" color-interpolation-filters="sRGB">
<feFlood flood-opacity="0" result="BackgroundImageFix"/>
<feColorMatrix in="SourceAlpha" type="matrix" values="0 0 0 0 0 0 0 0 0 0 0 0 0 0 0 0 0 0 127 0" result="hardAlpha"/>
<feOffset dy="4"/>
<feGaussianBlur stdDeviation="2"/>
<feComposite in2="hardAlpha" operator="out"/>
<feColorMatrix type="matrix" values="0 0 0 0 0 0 0 0 0 0 0 0 0 0 0 0 0 0 0.25 0"/>
<feBlend mode="normal" in2="BackgroundImageFix" result="effect1_dropShadow_28_572"/>
<feBlend mode="normal" in="SourceGraphic" in2="effect1_dropShadow_28_572" result="shape"/>
</filter>
<filter id="filter1_d_28_572" x="0.113647" y="66.1364" width="29.3636" height="65.75" filterUnits="userSpaceOnUse" color-interpolation-filters="sRGB">
<feFlood flood-opacity="0" result="BackgroundImageFix"/>
<feColorMatrix in="SourceAlpha" type="matrix" values="0 0 0 0 0 0 0 0 0 0 0 0 0 0 0 0 0 0 127 0" result="hardAlpha"/>
<feOffset dy="4"/>
<feGaussianBlur stdDeviation="2"/>
<feComposite in2="hardAlpha" operator="out"/>
<feColorMatrix type="matrix" values="0 0 0 0 0 0 0 0 0 0 0 0 0 0 0 0 0 0 0.25 0"/>
<feBlend mode="normal" in2="BackgroundImageFix" result="effect1_dropShadow_28_572"/>
<feBlend mode="normal" in="SourceGraphic" in2="effect1_dropShadow_28_572" result="shape"/>
</filter>
</defs>
</svg>
