<svg xmlns="http://www.w3.org/2000/svg" viewBox="0 0 379.26 251.94"><g id="Layer_2" data-name="Layer 2"><g id="Layer_1-2" data-name="Layer 1"><path d="M189.63,55.21a13.93,13.93,0,1,0,13.93,13.93A13.93,13.93,0,0,0,189.63,55.21ZM187.94,77a5.37,5.37,0,1,1,5.37-5.36A5.36,5.36,0,0,1,187.94,77Z" style="fill:#bee239"/><polygon points="189.63 0 158.73 64.69 169.48 64.69 189.63 22.5 209.78 64.69 220.53 64.69 189.63 0" style="fill:#bee239"/><polygon points="189.63 139.67 220.53 74.97 209.78 74.97 189.63 117.17 169.48 74.97 158.73 74.97 189.63 139.67" style="fill:#bee239"/><path d="M274.94,204.9a32.11,32.11,0,0,0-7.13-10.48,32.86,32.86,0,0,0-10.71-7,34.85,34.85,0,0,0-13.31-2.5h-25.1V251H244a34.64,34.64,0,0,0,13.22-2.5A32.07,32.07,0,0,0,274.94,231a34.64,34.64,0,0,0,0-26.09ZM263.47,230a20.66,20.66,0,0,1-8,8.17,23.74,23.74,0,0,1-11.94,2.92h-14V194.85h14a23.55,23.55,0,0,1,11.85,2.92,21.1,21.1,0,0,1,8.06,8.12,24,24,0,0,1,2.93,12A24.74,24.74,0,0,1,263.47,230Z" style="fill:#bee239"/><path d="M326.42,215.7a20.9,20.9,0,0,0-7.64-8,21.3,21.3,0,0,0-11.19-2.92,23.15,23.15,0,0,0-20.29,11.56,24.75,24.75,0,0,0,.05,24.11,22.84,22.84,0,0,0,8.59,8.45,24.42,24.42,0,0,0,12.22,3.06,25.56,25.56,0,0,0,10-2,21.11,21.11,0,0,0,8-5.85l-6.6-6.7a13.6,13.6,0,0,1-5.05,3.59,16.75,16.75,0,0,1-6.47,1.22,14.47,14.47,0,0,1-7.17-1.74,12,12,0,0,1-4.81-5,14.3,14.3,0,0,1-1.23-3.3h33.79c.19-.94.33-1.81.42-2.6a18.12,18.12,0,0,0,.14-2.31A23.79,23.79,0,0,0,326.42,215.7ZM296,220.75a11.62,11.62,0,0,1,4.53-4.76,13.51,13.51,0,0,1,6.89-1.7,12.44,12.44,0,0,1,6.37,1.51,10.19,10.19,0,0,1,4,4.34,14.69,14.69,0,0,1,1.18,3.59H294.89A13.86,13.86,0,0,1,296,220.75Z" style="fill:#bee239"/><polygon points="31.07 186.2 0 251.25 10.81 251.25 31.07 208.83 51.33 251.25 62.13 251.25 31.07 186.2" style="fill:#bee239"/><path d="M77.16,216a9.46,9.46,0,0,1,4.57-.9,12.72,12.72,0,0,1,5.55,1.16,12.48,12.48,0,0,1,4.3,3.5l6.28-6.27A17,17,0,0,0,91.18,208,21.65,21.65,0,0,0,82,206.13a20.38,20.38,0,0,0-8.47,1.61,12.56,12.56,0,0,0-5.47,4.57,12.71,12.71,0,0,0-1.93,7.08,11.05,11.05,0,0,0,1.62,6.27,11.44,11.44,0,0,0,4.16,3.81,26.56,26.56,0,0,0,5.38,2.2q2.82.81,5.38,1.57a15.42,15.42,0,0,1,4.16,1.83,3.46,3.46,0,0,1,1.62,3.05A3.14,3.14,0,0,1,86.74,241a10.13,10.13,0,0,1-5,1,16,16,0,0,1-6.59-1.3A14.56,14.56,0,0,1,70,236.78l-6.28,6.27a20.33,20.33,0,0,0,4.84,4.26,23.27,23.27,0,0,0,6.1,2.68,25,25,0,0,0,6.9.94q7.53,0,11.91-3.67a12.29,12.29,0,0,0,4.4-9.95,11.44,11.44,0,0,0-1.62-6.4A12.19,12.19,0,0,0,92.08,227a25.9,25.9,0,0,0-5.38-2.33c-1.88-.56-3.67-1.09-5.38-1.57a16.21,16.21,0,0,1-4.16-1.7,3.08,3.08,0,0,1-1.62-2.78A2.81,2.81,0,0,1,77.16,216Z" style="fill:#bee239"/><path d="M202.41,250.61h10.81l-31.07-65.05-18.39,38.51H130l15-17H133.25l-17.38,20.23V185.52H106V250h9.86V229L133.34,250h12.55l-14.55-17.13h28.2l-8.45,17.7h10.8l8.46-17.7H194Zm-27.84-26.54,7.58-15.88,7.59,15.88Z" style="fill:#bee239"/><path d="M352.92,250.93l-20.38-44.67h11.35l15.54,36.39h-6.7l15.64-36.39h10.89l-20.39,44.67Z" style="fill:#bee239"/></g></g></svg>