<svg width="216" height="38" viewBox="0 0 216 38" fill="none" xmlns="http://www.w3.org/2000/svg">
<path d="M155.877 11.3227C154.941 9.09413 153.569 7.07571 151.84 5.38675C150.095 3.67903 148.032 2.33063 145.768 1.41811C143.369 0.45986 140.806 -0.0215719 138.222 0.00074158H123.992V37.4533H138.33C140.885 37.4831 143.421 37.0132 145.796 36.07C148.051 35.1729 150.103 33.8326 151.831 32.1284C153.558 30.4242 154.926 28.3908 155.854 26.1484C157.782 21.4042 157.782 16.0952 155.854 11.351L155.877 11.3227ZM149.38 25.5588C148.331 27.4957 146.76 29.0988 144.844 30.1851C142.772 31.3211 140.437 31.8921 138.075 31.8406H130.137V5.62487H138.075C140.419 5.57948 142.734 6.15241 144.787 7.28602C146.708 8.36568 148.292 9.95741 149.363 11.884C150.5 13.968 151.073 16.3135 151.024 18.6874C151.069 21.0804 150.503 23.4455 149.38 25.5588Z" fill="white" style="fill:white;fill-opacity:1;"/>
<path d="M185.063 17.4514C184.056 15.5756 182.559 14.0081 180.732 12.9158C178.813 11.7877 176.619 11.2127 174.393 11.2547C172.067 11.2278 169.775 11.8208 167.753 12.9726C165.732 14.1244 164.053 15.7935 162.89 17.8086C161.723 19.8974 161.11 22.2503 161.11 24.6432C161.11 27.036 161.723 29.3889 162.89 31.4777C164.054 33.483 165.736 35.1378 167.76 36.2684C169.884 37.4463 172.282 38.0428 174.711 37.9976C176.658 38.0035 178.586 37.6179 180.38 36.8637C182.133 36.13 183.688 34.9915 184.916 33.5414L181.168 29.7428C180.387 30.6366 179.406 31.3339 178.305 31.7782C177.143 32.2509 175.898 32.488 174.643 32.4755C173.224 32.5057 171.823 32.1636 170.578 31.4834C169.411 30.836 168.461 29.8601 167.845 28.677C167.536 28.0833 167.303 27.4527 167.153 26.8004H186.305C186.413 26.2675 186.492 25.7799 186.549 25.332C186.6 24.8973 186.626 24.46 186.628 24.0223C186.673 21.7346 186.135 19.4731 185.063 17.4514ZM167.811 20.3145C168.388 19.1837 169.28 18.2444 170.379 17.6102C171.572 16.9465 172.921 16.6138 174.286 16.6463C175.544 16.6075 176.79 16.9028 177.897 17.5024C178.88 18.0801 179.669 18.9365 180.165 19.963C180.476 20.6091 180.701 21.2935 180.834 21.9983H167.193C167.33 21.414 167.537 20.8485 167.811 20.3145Z" fill="white" style="fill:white;fill-opacity:1;"/>
<path d="M17.6151 0.720766L0 37.6007H6.12871L17.6151 13.5508L29.1015 37.6007H35.2245L17.6151 0.720766Z" fill="white" style="fill:white;fill-opacity:1;"/>
<path d="M43.7457 17.6102C44.5537 17.2279 45.4441 17.0526 46.3367 17.0999C47.4241 17.0791 48.5021 17.306 49.4889 17.7632C50.4391 18.2325 51.272 18.9086 51.9268 19.7419L55.4816 16.1871C54.5115 14.8349 53.2063 13.7584 51.6943 13.0632C50.0565 12.3395 48.28 11.9835 46.4898 12.02C44.8423 11.9784 43.205 12.2896 41.6877 12.9328C40.427 13.479 39.3518 14.379 38.5922 15.5238C37.8398 16.7247 37.4591 18.1212 37.498 19.5378C37.4442 20.7887 37.7618 22.0275 38.4107 23.0982C39.0111 24.0001 39.8227 24.7416 40.7749 25.2583C41.7418 25.7811 42.7626 26.1975 43.8194 26.4999C44.8929 26.8061 45.9096 27.1028 46.8696 27.39C47.7048 27.6193 48.5015 27.9708 49.2338 28.4332C49.52 28.6136 49.7546 28.8651 49.9146 29.1632C50.0746 29.4613 50.1545 29.7958 50.1466 30.134C50.155 30.4684 50.0691 30.7984 49.8986 31.0862C49.7281 31.374 49.48 31.6079 49.1828 31.7612C48.3012 32.1873 47.3257 32.3824 46.348 32.3281C45.0647 32.347 43.7918 32.0959 42.6118 31.5911C41.4868 31.0795 40.4895 30.3243 39.6921 29.38L36.1373 32.9348C36.9163 33.882 37.8429 34.6975 38.8813 35.35C39.9542 36.0192 41.1167 36.5327 42.334 36.8751C43.6074 37.2313 44.9237 37.4106 46.246 37.408C49.0921 37.408 51.3447 36.7125 53.004 35.3216C53.8237 34.6365 54.4747 33.7717 54.9063 32.7944C55.3379 31.8171 55.5386 30.7535 55.4929 29.6861C55.5488 28.4118 55.2316 27.1487 54.5801 26.052C53.9793 25.1313 53.1692 24.3659 52.2159 23.8182C51.2558 23.2572 50.2318 22.8137 49.1658 22.4972C48.0999 22.176 47.0851 21.8793 46.1212 21.6071C45.2944 21.3907 44.4995 21.0667 43.7571 20.6433C43.4759 20.4886 43.2423 20.26 43.0814 19.9823C42.9206 19.7045 42.8386 19.3881 42.8443 19.0672C42.8415 18.764 42.9247 18.4662 43.0842 18.2083C43.2438 17.9504 43.4731 17.743 43.7457 17.6102Z" fill="white" style="fill:white;fill-opacity:1;"/>
<path d="M114.762 37.2379H120.89L103.275 0.352249L92.8491 22.1798H73.7146L82.2188 12.5416H75.5515L65.6923 23.994V0.352249H60.1022V36.9317H65.6923V24.9578L75.6026 36.9147H82.7121L74.463 27.2029H90.4509L85.6602 37.2379H91.7889L96.5796 27.2029H109.971L114.762 37.2379ZM98.9778 22.1911L103.275 13.188L107.573 22.1911H98.9778Z" fill="white" style="fill:white;fill-opacity:1;"/>
<path d="M200.087 37.425L188.533 12.0994H194.968L203.784 32.725H199.985L208.847 12.0994H215.021L203.466 37.425H200.087Z" fill="white" style="fill:white;fill-opacity:1;"/>
</svg>
