<svg xmlns="http://www.w3.org/2000/svg" viewBox="0 0 379.26 67.01"><g id="Layer_2" data-name="Layer 2"><g id="Layer_1-2" data-name="Layer 1"><path d="M274.94,20a32.22,32.22,0,0,0-7.13-10.48,33,33,0,0,0-10.71-7A34.85,34.85,0,0,0,243.79,0h-25.1V66.06H244a34.64,34.64,0,0,0,13.22-2.5,32.09,32.09,0,0,0,17.74-17.5,33.17,33.17,0,0,0,2.55-13A33,33,0,0,0,274.94,20Zm-11.47,25.1a20.6,20.6,0,0,1-8,8.17,23.74,23.74,0,0,1-11.94,2.92h-14V9.91h14a23.66,23.66,0,0,1,11.85,2.92A21.17,21.17,0,0,1,263.42,21a24,24,0,0,1,2.93,12A24.74,24.74,0,0,1,263.47,45.06Z" style="fill:#bee239"/><path d="M326.42,30.77a20.93,20.93,0,0,0-7.64-8,21.39,21.39,0,0,0-11.19-2.92A23.15,23.15,0,0,0,287.3,31.38a23.39,23.39,0,0,0-3.11,12,23.35,23.35,0,0,0,3.16,12.08,22.77,22.77,0,0,0,8.59,8.45A24.32,24.32,0,0,0,308.16,67a25.56,25.56,0,0,0,10-2,21.24,21.24,0,0,0,8-5.86l-6.6-6.7a13.49,13.49,0,0,1-5.05,3.59,16.76,16.76,0,0,1-6.47,1.23,14.37,14.37,0,0,1-7.17-1.75,12,12,0,0,1-4.81-4.95,14.38,14.38,0,0,1-1.23-3.31h33.79c.19-.94.33-1.81.42-2.59a18.34,18.34,0,0,0,.14-2.31A23.73,23.73,0,0,0,326.42,30.77ZM296,35.82a11.58,11.58,0,0,1,4.53-4.77,13.51,13.51,0,0,1,6.89-1.7,12.54,12.54,0,0,1,6.37,1.51,10.19,10.19,0,0,1,4,4.34A14.83,14.83,0,0,1,319,38.79H294.89A13.78,13.78,0,0,1,296,35.82Z" style="fill:#bee239"/><polygon points="31.07 1.26 0 66.31 10.81 66.31 31.07 23.89 51.33 66.31 62.13 66.31 31.07 1.26" style="fill:#bee239"/><path d="M77.16,31.05a9.46,9.46,0,0,1,4.57-.9,12.58,12.58,0,0,1,5.55,1.17,12.34,12.34,0,0,1,4.3,3.49l6.28-6.27A17,17,0,0,0,91.18,23,21.65,21.65,0,0,0,82,21.19a20.38,20.38,0,0,0-8.47,1.61,12.56,12.56,0,0,0-5.47,4.57,12.76,12.76,0,0,0-1.93,7.08,11.11,11.11,0,0,0,1.62,6.28,11.5,11.5,0,0,0,4.16,3.8,26.56,26.56,0,0,0,5.38,2.2q2.82.81,5.38,1.57a15.42,15.42,0,0,1,4.16,1.84,3.43,3.43,0,0,1,1.62,3,3.13,3.13,0,0,1-1.71,2.87,10.12,10.12,0,0,1-5,1,16.11,16.11,0,0,1-6.59-1.3A14.71,14.71,0,0,1,70,51.84l-6.28,6.27a20.33,20.33,0,0,0,4.84,4.26,23.62,23.62,0,0,0,6.1,2.69,25.43,25.43,0,0,0,6.9.94q7.53,0,11.91-3.68a12.28,12.28,0,0,0,4.4-9.94A11.47,11.47,0,0,0,96.24,46,12.16,12.16,0,0,0,92.08,42,24.88,24.88,0,0,0,86.7,39.7q-2.82-.86-5.38-1.57a16.56,16.56,0,0,1-4.16-1.71,3.07,3.07,0,0,1-1.62-2.77A2.83,2.83,0,0,1,77.16,31.05Z" style="fill:#bee239"/><path d="M202.41,65.67h10.81L182.15.63l-18.39,38.5H130l15-17H133.25L115.87,42.31V.58H106V65.1h9.86V44L133.34,65.1h12.55L131.34,48h28.2l-8.45,17.7h10.8L170.35,48H194ZM174.57,39.13l7.58-15.88,7.59,15.88Z" style="fill:#bee239"/><path d="M352.92,66,332.54,21.32h11.35l15.54,36.39h-6.7l15.64-36.39h10.89L358.87,66Z" style="fill:#bee239"/></g></g></svg>