<svg width="114" height="20" viewBox="0 0 114 20" fill="none" xmlns="http://www.w3.org/2000/svg">
<path d="M82.0404 5.95932C81.5481 4.78639 80.8257 3.72406 79.9158 2.83513C78.9976 1.93633 77.9118 1.22665 76.72 0.746375C75.4572 0.242031 74.1082 -0.0113536 72.7484 0.000390305H65.2587V19.7123H72.8051C74.15 19.728 75.485 19.4806 76.735 18.9842C77.9217 18.5121 79.0016 17.8066 79.9109 16.9097C80.8201 16.0127 81.5402 14.9425 82.0285 13.7623C83.0429 11.2654 83.0429 8.47115 82.0285 5.97423L82.0404 5.95932ZM78.6208 13.452C78.0692 14.4714 77.242 15.3152 76.2337 15.8869C75.143 16.4848 73.9143 16.7853 72.6708 16.7582H68.4933V2.96046H72.6708C73.9048 2.93657 75.1234 3.23811 76.2038 3.83475C77.215 4.40299 78.0486 5.24074 78.6119 6.25472C79.2107 7.35157 79.5121 8.58603 79.4861 9.83545C79.5101 11.0949 79.2122 12.3397 78.6208 13.452Z" fill="white" style="fill:white;fill-opacity:1;"/>
<path d="M97.4017 9.18495C96.8717 8.1977 96.0838 7.37269 95.122 6.7978C94.112 6.20405 92.9573 5.90144 91.7859 5.92351C90.5614 5.90939 89.3552 6.22145 88.2912 6.82766C87.2272 7.43387 86.3437 8.31237 85.7315 9.37294C85.1171 10.4723 84.7945 11.7107 84.7945 12.9701C84.7945 14.2295 85.1171 15.4679 85.7315 16.5672C86.344 17.6226 87.2294 18.4936 88.2947 19.0886C89.4129 19.7086 90.6748 20.0225 91.953 19.9987C92.9776 20.0019 93.9924 19.7989 94.937 19.402C95.8596 19.0158 96.6777 18.4166 97.3241 17.6534L95.3517 15.6541C94.9405 16.1245 94.4243 16.4915 93.8449 16.7254C93.233 16.9742 92.5777 17.0989 91.9172 17.0924C91.1707 17.1083 90.433 16.9282 89.7777 16.5702C89.1639 16.2295 88.6637 15.7158 88.3395 15.0931C88.1767 14.7807 88.0544 14.4488 87.9755 14.1055H98.0552C98.1119 13.825 98.1537 13.5684 98.1835 13.3326C98.2104 13.1038 98.2244 12.8737 98.2253 12.6433C98.2492 11.4393 97.9657 10.249 97.4017 9.18495ZM88.3216 10.6918C88.6251 10.0967 89.0946 9.6023 89.6733 9.2685C90.3012 8.91923 91.011 8.7441 91.7292 8.76124C92.3915 8.74076 93.0474 8.89624 93.63 9.21181C94.1473 9.51587 94.5626 9.96656 94.8236 10.5068C94.9875 10.8469 95.1059 11.2071 95.1757 11.5781H87.9963C88.0683 11.2705 88.1775 10.9729 88.3216 10.6918Z" fill="white" style="fill:white;fill-opacity:1;"/>
<path d="M9.2711 0.37935L0 19.7899H3.22564L9.2711 7.132L15.3166 19.7899H18.5392L9.2711 0.37935Z" fill="white" style="fill:white;fill-opacity:1;"/>
<path d="M23.0241 9.2685C23.4493 9.06733 23.9179 8.97504 24.3877 8.99995C24.9601 8.98901 25.5274 9.1084 26.0468 9.34907C26.5469 9.59607 26.9853 9.9519 27.3299 10.3905L29.2008 8.51953C28.6903 7.80786 28.0033 7.24126 27.2076 6.87538C26.3455 6.49449 25.4105 6.30708 24.4683 6.32634C23.6012 6.30441 22.7395 6.46821 21.9409 6.80675C21.2774 7.0942 20.7115 7.56787 20.3117 8.17041C19.9157 8.80247 19.7153 9.53746 19.7358 10.283C19.7075 10.9414 19.8746 11.5934 20.2162 12.157C20.5322 12.6316 20.9593 13.0219 21.4605 13.2938C21.9694 13.569 22.5067 13.7881 23.0629 13.9473C23.6278 14.1084 24.1629 14.2646 24.6682 14.4158C25.1078 14.5365 25.5271 14.7215 25.9125 14.9648C26.0632 15.0598 26.1866 15.1921 26.2708 15.349C26.355 15.5059 26.3971 15.682 26.3929 15.86C26.3974 16.036 26.3521 16.2097 26.2624 16.3611C26.1727 16.5126 26.0421 16.6357 25.8857 16.7164C25.4217 16.9407 24.9083 17.0434 24.3937 17.0148C23.7183 17.0247 23.0483 16.8926 22.4273 16.6269C21.8351 16.3576 21.3102 15.9602 20.8906 15.4632L19.0196 17.3341C19.4296 17.8326 19.9173 18.2618 20.4638 18.6052C21.0285 18.9575 21.6404 19.2277 22.2811 19.4079C22.9513 19.5954 23.6441 19.6898 24.34 19.6884C25.8379 19.6884 27.0235 19.3224 27.8968 18.5903C28.3283 18.2297 28.6709 17.7746 28.8981 17.2602C29.1252 16.7459 29.2309 16.1861 29.2068 15.6243C29.2362 14.9536 29.0692 14.2888 28.7264 13.7116C28.4102 13.227 27.9838 12.8242 27.4821 12.5359C26.9768 12.2406 26.4378 12.0072 25.8767 11.8407C25.3157 11.6716 24.7816 11.5154 24.2743 11.3722C23.8392 11.2583 23.4208 11.0877 23.03 10.8649C22.882 10.7835 22.7591 10.6632 22.6744 10.517C22.5898 10.3708 22.5466 10.2043 22.5496 10.0354C22.5482 9.87578 22.5919 9.71903 22.6759 9.58331C22.7599 9.44758 22.8806 9.33843 23.0241 9.2685Z" fill="white" style="fill:white;fill-opacity:1;"/>
<path d="M60.4009 19.5989H63.6265L54.3554 0.185394L48.868 11.6736H38.7972L43.2731 6.60086H39.764L34.5749 12.6284V0.185394H31.6327V19.4378H34.5749V13.1357L39.7908 19.4288H43.5327L39.191 14.3173H47.6058L45.0843 19.5989H48.31L50.8314 14.3173H57.8794L60.4009 19.5989ZM52.0936 11.6795L54.3554 6.94103L56.6172 11.6795H52.0936Z" fill="white" style="fill:white;fill-opacity:1;"/>
<path d="M105.309 19.6974L99.2279 6.36811H102.615L107.255 17.2237H105.255L109.919 6.36811H113.169L107.088 19.6974H105.309Z" fill="white" style="fill:white;fill-opacity:1;"/>
</svg>
